<?xml version="1.0" encoding="UTF-8"?><svg xmlns="http://www.w3.org/2000/svg" viewBox="0 0 188.67 225.37"><g id="a"/><g id="b"><g id="c"><g id="d"><path d="M106.21,143.22c0-.1-.07-.19-.16-.23-.25-.12-.54-.12-.79,0-.09,.04-.16,.13-.17,.23h0v6.71h0c0,.1,.07,.19,.17,.23,.25,.13,.54,.13,.79,0,.09-.04,.16-.13,.16-.23h0v-6.71Z" style="fill:#ba68c8;"/><path d="M106.21,152.04c0-.1-.07-.19-.16-.23-.25-.13-.54-.13-.79,0-.1,.04-.16,.13-.17,.23h0v3.19h0c.01,.1,.08,.19,.17,.23,.25,.13,.54,.13,.79,0,.09-.04,.15-.13,.16-.23h0v-3.19Z" style="fill:#ba68c8;"/><path d="M106.21,157.33c-.01-.1-.07-.19-.16-.23-.25-.12-.54-.12-.79,0-.09,.04-.16,.13-.17,.23h0v3.2h0c.01,.1,.08,.19,.17,.23,.25,.12,.54,.12,.79,0,.09-.04,.15-.13,.16-.23h0v-3.2Z" style="fill:#ba68c8;"/><path d="M106.21,162.61c-.01-.1-.07-.19-.16-.23-.25-.12-.54-.12-.79,0-.09,.04-.16,.13-.17,.23h0v3.2h0c.01,.1,.08,.18,.17,.22,.25,.13,.54,.13,.79,0,.09-.04,.15-.12,.16-.22h0v-3.2Z" style="fill:#ba68c8;"/><path d="M106.21,167.93c0-.1-.07-.19-.16-.23-.25-.13-.54-.13-.79,0-.09,.04-.16,.13-.17,.23h0v3.19h0c0,.1,.07,.19,.17,.23,.25,.13,.54,.13,.79,0,.09-.04,.16-.13,.16-.23h0v-3.19Z" style="fill:#ba68c8;"/><path d="M106.21,173.23c0-.1-.07-.19-.16-.23-.25-.13-.54-.13-.79,0-.1,.04-.16,.13-.17,.23h0v3.19h0c.01,.1,.08,.19,.17,.23,.25,.12,.54,.12,.79,0,.09-.04,.15-.13,.16-.23h0v-3.19Z" style="fill:#ba68c8;"/><path d="M106.21,178.52c-.01-.1-.07-.19-.16-.23-.25-.12-.54-.12-.79,0-.09,.04-.16,.13-.17,.23h0v3.2h0c.01,.1,.08,.19,.17,.23,.25,.12,.54,.12,.79,0,.09-.04,.15-.13,.16-.23h0v-3.2Z" style="fill:#ba68c8;"/><path d="M106.21,183.82c-.01-.1-.07-.19-.16-.23-.25-.12-.54-.12-.79,0-.09,.04-.16,.13-.17,.23h0v3.19h0c0,.1,.07,.19,.17,.23,.25,.13,.54,.13,.79,0,.09-.04,.16-.13,.16-.23h0v-3.19Z" style="fill:#ba68c8;"/><path d="M106.21,189.12c0-.1-.07-.19-.16-.23-.25-.13-.54-.13-.79,0-.09,.04-.16,.13-.17,.23h0v3.19h0c0,.1,.07,.19,.17,.23,.25,.13,.54,.13,.79,0,.09-.04,.16-.13,.16-.23h0v-3.19Z" style="fill:#ba68c8;"/><path d="M106.21,194.42c0-.1-.07-.19-.16-.23-.25-.13-.54-.13-.79,0-.1,.04-.16,.13-.17,.23h0v3.19h0c.01,.1,.08,.19,.17,.23,.25,.12,.54,.12,.79,0,.09-.04,.15-.13,.16-.23h0v-3.19Z" style="fill:#ba68c8;"/><path d="M106.21,199.71c-.01-.1-.07-.19-.16-.23-.25-.12-.54-.12-.79,0-.09,.04-.16,.13-.17,.23h0v3.2h0c.01,.1,.08,.19,.17,.23,.25,.12,.54,.12,.79,0,.09-.04,.15-.13,.16-.23h0v-3.2Z" style="fill:#ba68c8;"/><path d="M106.21,205.01c0-.1-.07-.19-.16-.23-.25-.12-.54-.12-.79,0-.09,.04-.16,.13-.17,.23h0v3.19h0c0,.1,.07,.19,.17,.23,.25,.13,.54,.13,.79,0,.09-.04,.16-.13,.16-.23h0v-3.19Z" style="fill:#ba68c8;"/><path d="M106.21,210.31c0-.1-.07-.19-.16-.23-.25-.13-.54-.13-.79,0-.09,.04-.16,.13-.17,.23h0v3.19h0c0,.1,.07,.19,.17,.23,.25,.13,.54,.13,.79,0,.09-.04,.16-.13,.16-.23h0v-3.19Z" style="fill:#ba68c8;"/><path d="M109.22,136.02c-.08-.62-.47-1.16-1.05-1.41-1.57-.8-3.43-.8-5,0-.57,.27-.95,.82-1,1.45h0v9.38h0c.05,.63,.43,1.19,1,1.46,1.57,.79,3.43,.79,5,0,.59-.26,.99-.82,1.05-1.46h0v-9.42Z" style="fill:#455a64;"/><path d="M111.4,126.61c-.09-1.03-.74-1.93-1.69-2.34-2.55-1.3-5.57-1.3-8.12,0-.94,.42-1.59,1.31-1.68,2.34h0v9.22h0c.01,1.09,.66,2.07,1.66,2.51,2.55,1.29,5.57,1.29,8.12,0,1-.43,1.66-1.42,1.66-2.51h0v-9.22h.05Z" style="fill:#37474f;"/><path d="M126.57,131.41c-.01-.1-.08-.19-.17-.23-.25-.12-.54-.12-.79,0-.09,.04-.15,.13-.16,.23h0v6.71h0c0,.1,.07,.19,.16,.23,.25,.13,.54,.13,.79,0,.1-.04,.16-.13,.17-.23h0v-6.71Z" style="fill:#ba68c8;"/><path d="M126.57,140.23c0-.1-.07-.19-.17-.23-.25-.13-.54-.13-.79,0-.09,.04-.16,.13-.16,.23h0v3.19h0c0,.1,.07,.19,.16,.23,.25,.13,.54,.13,.79,0,.1-.04,.16-.13,.17-.23h0v-3.19Z" style="fill:#ba68c8;"/><path d="M126.57,145.53c0-.1-.07-.19-.17-.23-.25-.13-.54-.13-.79,0-.09,.04-.16,.13-.16,.23h0v3.19h0c0,.1,.07,.19,.16,.23,.25,.12,.54,.12,.79,0,.09-.04,.16-.13,.17-.23h0v-3.19Z" style="fill:#ba68c8;"/><path d="M126.57,150.82c-.01-.1-.08-.19-.17-.23-.25-.12-.54-.12-.79,0-.09,.04-.15,.13-.16,.23h0v3.2h0c.01,.1,.07,.19,.16,.23,.25,.12,.54,.12,.79,0,.09-.04,.16-.13,.17-.23h0v-3.2Z" style="fill:#ba68c8;"/><path d="M126.57,156.12c-.01-.1-.08-.19-.17-.23-.25-.12-.54-.12-.79,0-.09,.04-.15,.13-.16,.23h0v3.19h0c0,.1,.07,.19,.16,.23,.25,.13,.54,.13,.79,0,.1-.04,.16-.13,.17-.23h0v-3.19Z" style="fill:#ba68c8;"/><path d="M126.57,161.42c0-.1-.07-.19-.17-.23-.25-.13-.54-.13-.79,0-.09,.04-.16,.13-.16,.23h0v3.19h0c0,.1,.07,.19,.16,.23,.25,.13,.54,.13,.79,0,.09-.04,.16-.13,.17-.23h0v-3.19Z" style="fill:#ba68c8;"/><path d="M126.57,166.71c-.01-.1-.08-.18-.17-.22-.25-.13-.54-.13-.79,0-.09,.04-.15,.12-.16,.22h0v3.2h0c0,.1,.07,.19,.16,.23,.25,.12,.54,.12,.79,0,.09-.04,.16-.13,.17-.23h0v-3.2Z" style="fill:#ba68c8;"/><path d="M126.57,172.01c-.01-.1-.08-.19-.17-.23-.25-.12-.54-.12-.79,0-.09,.04-.15,.13-.16,.23h0v3.2h0c.01,.1,.07,.19,.16,.23,.25,.12,.54,.12,.79,0,.09-.04,.16-.13,.17-.23h0v-3.2Z" style="fill:#ba68c8;"/><path d="M126.57,177.31c-.01-.1-.08-.19-.17-.23-.25-.12-.54-.12-.79,0-.09,.04-.15,.13-.16,.23h0v3.19h0c0,.1,.07,.19,.16,.23,.25,.13,.54,.13,.79,0,.1-.04,.16-.13,.17-.23h0v-3.19Z" style="fill:#ba68c8;"/><path d="M126.57,182.61c0-.1-.07-.19-.17-.23-.25-.13-.54-.13-.79,0-.09,.04-.16,.13-.16,.23h0v3.19h0c0,.1,.07,.19,.16,.23,.25,.13,.54,.13,.79,0,.09-.04,.16-.13,.17-.23h0v-3.19Z" style="fill:#ba68c8;"/><path d="M126.57,187.9c-.01-.1-.08-.18-.17-.22-.25-.13-.54-.13-.79,0-.09,.04-.15,.12-.16,.22h0v3.2h0c.01,.1,.07,.19,.16,.23,.25,.12,.54,.12,.79,0,.09-.04,.16-.13,.17-.23h0v-3.2Z" style="fill:#ba68c8;"/><path d="M126.57,193.2c-.01-.1-.08-.19-.17-.23-.25-.12-.54-.12-.79,0-.09,.04-.15,.13-.16,.23h0v3.2h0c.01,.1,.07,.19,.16,.23,.25,.12,.54,.12,.79,0,.09-.04,.16-.13,.17-.23h0v-3.2Z" style="fill:#ba68c8;"/><path d="M126.57,198.5c-.01-.1-.08-.19-.17-.23-.25-.13-.54-.13-.79,0-.09,.04-.15,.13-.16,.23h0v3.19h0c0,.1,.07,.19,.16,.23,.25,.13,.54,.13,.79,0,.1-.04,.16-.13,.17-.23h0v-3.19Z" style="fill:#ba68c8;"/><path d="M129.57,124.21c-.05-.63-.43-1.18-1-1.45-1.57-.79-3.43-.79-5,0-.59,.26-.99,.81-1.05,1.45h0v9.4h0c.06,.64,.46,1.19,1.05,1.45,1.57,.79,3.43,.79,5,0,.57-.27,.95-.82,1-1.45h0v-9.4Z" style="fill:#455a64;"/><path d="M131.7,114.83c-.1-1.03-.74-1.92-1.68-2.34-2.56-1.29-5.57-1.29-8.13,0-.94,.42-1.58,1.31-1.68,2.34h0v9.22h0c0,1.09,.65,2.08,1.65,2.51,2.56,1.29,5.57,1.29,8.13,0,1-.43,1.65-1.42,1.65-2.51h0v-9.22h.06Z" style="fill:#37474f;"/><path d="M85.9,154.77c0-.1-.07-.19-.17-.23-.25-.13-.54-.13-.79,0-.09,.04-.16,.13-.16,.23h0v6.71h0c.01,.1,.07,.19,.16,.23,.25,.12,.54,.12,.79,0,.09-.04,.16-.13,.17-.23h0v-6.71Z" style="fill:#ba68c8;"/><path d="M84.78,166.77h0c0,.1,.07,.19,.16,.23,.25,.13,.54,.13,.79,0,.1-.04,.16-.13,.17-.23h0v-3.16h0c-.01-.1-.08-.19-.17-.23-.25-.12-.54-.12-.79,0-.09,.04-.15,.13-.16,.23h0" style="fill:#ba68c8;"/><path d="M85.9,168.88c-.01-.1-.08-.19-.17-.23-.25-.13-.54-.13-.79,0-.09,.04-.15,.13-.16,.23h0v3.19h0c0,.1,.07,.19,.16,.23,.25,.13,.54,.13,.79,0,.1-.04,.16-.13,.17-.23h0v-3.19Z" style="fill:#ba68c8;"/><path d="M85.9,174.18h0c0-.1-.07-.19-.17-.23-.25-.13-.54-.13-.79,0-.09,.04-.16,.13-.16,.23h0v3.19h0c0,.1,.07,.19,.16,.23,.25,.12,.54,.12,.79,0,.09-.04,.16-.13,.17-.23h0" style="fill:#ba68c8;"/><path d="M85.9,179.47c-.01-.1-.08-.19-.17-.23-.25-.12-.54-.12-.79,0-.09,.04-.15,.13-.16,.23h0v3.2h0c.01,.1,.07,.19,.16,.23,.25,.12,.54,.12,.79,0,.09-.04,.16-.13,.17-.23h0v-3.2Z" style="fill:#ba68c8;"/><path d="M85.9,184.77h0c-.01-.1-.08-.19-.17-.23-.25-.12-.54-.12-.79,0-.09,.04-.15,.13-.16,.23h0v3.19h0c0,.1,.07,.19,.16,.23,.25,.13,.54,.13,.79,0,.1-.04,.16-.13,.17-.23h0" style="fill:#ba68c8;"/><path d="M85.9,190.07c-.01-.1-.08-.19-.17-.23-.25-.13-.54-.13-.79,0-.09,.04-.15,.13-.16,.23h0v3.19h0c0,.1,.07,.19,.16,.23,.25,.13,.54,.13,.79,0,.09-.04,.16-.13,.17-.23h0v-3.19Z" style="fill:#ba68c8;"/><path d="M85.9,195.37h0c0-.1-.07-.19-.17-.23-.25-.13-.54-.13-.79,0-.09,.04-.16,.13-.16,.23h0v3.24h0c0,.1,.07,.19,.16,.23,.25,.12,.54,.12,.79,0,.09-.04,.16-.13,.17-.23h0" style="fill:#ba68c8;"/><path d="M85.9,200.66c-.01-.1-.08-.19-.17-.23-.25-.12-.54-.12-.79,0-.09,.04-.15,.13-.16,.23h0v3.2h0c.01,.1,.07,.19,.16,.23,.25,.12,.54,.12,.79,0,.09-.04,.16-.13,.17-.23h0v-3.2Z" style="fill:#ba68c8;"/><path d="M85.9,205.96h0c-.01-.1-.08-.19-.17-.23-.25-.12-.54-.12-.79,0-.09,.04-.15,.13-.16,.23h0v3.19h0c0,.1,.07,.19,.16,.23,.25,.13,.54,.13,.79,0,.1-.04,.16-.13,.17-.23h0" style="fill:#ba68c8;"/><path d="M85.9,211.26c0-.1-.07-.19-.17-.23-.25-.13-.54-.13-.79,0-.09,.04-.16,.13-.16,.23h0v3.19h0c0,.1,.07,.19,.16,.23,.25,.13,.54,.13,.79,0,.09-.04,.16-.13,.17-.23h0v-3.19h0Z" style="fill:#ba68c8;"/><path d="M85.9,216.61h0c0-.1-.07-.19-.17-.23-.25-.13-.54-.13-.79,0-.09,.04-.16,.13-.16,.23h0v3.19h0c0,.1,.07,.19,.16,.23,.25,.12,.54,.12,.79,0,.09-.04,.16-.13,.17-.23h0" style="fill:#ba68c8;"/><path d="M85.9,221.85c-.01-.1-.08-.19-.17-.23-.25-.12-.54-.12-.79,0-.09,.04-.15,.13-.16,.23h0v3.2h0c.01,.1,.07,.19,.16,.23,.25,.12,.54,.12,.79,0,.09-.04,.16-.13,.17-.23h0v-3.2Z" style="fill:#ba68c8;"/><path d="M88.9,147.61c-.05-.63-.43-1.19-1-1.46-1.57-.79-3.43-.79-5,0-.57,.27-.95,.83-1,1.46h0v9.38h0c.05,.63,.43,1.18,1,1.45,1.57,.8,3.43,.8,5,0,.57-.27,.95-.82,1-1.45h0v-9.38Z" style="fill:#455a64;"/><path d="M91.08,138.19c-.09-1.03-.74-1.93-1.68-2.35-2.56-1.29-5.57-1.29-8.13,0-.94,.42-1.59,1.32-1.68,2.35h0v9.22h0c0,1.09,.65,2.07,1.65,2.5,2.56,1.29,5.57,1.29,8.13,0,1-.43,1.65-1.41,1.65-2.5h0v-9.22h.06Z" style="fill:#37474f;"/><g id="e"><path d="M183.95,50.91h0l-.46-.26-.28-.16-10.05-5.88v-.7c0-12.37-4.16-21-10.72-24.67h0l-19.33-11.15h0c-5.32-3.06-12.26-2.78-19.85,1.6-3.52,2.09-6.74,4.65-9.57,7.6-1.24-1.29-2.65-2.41-4.19-3.32h0L90.8,3.22h0c-6.85-4.54-16-4.45-26.1,1.38C43.57,16.85,26.34,49.67,26.34,77.92c0,3.13,.23,6.26,.71,9.35l-2.64,1.53C10.93,96.61,0,117.46,0,135.43H0c0,9.92,3.34,17,8.59,20h0l19.58,11.35h0c4.25,2.43,9.75,2.24,15.77-1.23l35.49-20.49,94.55-54.59c8.09-4.67,14.65-17.2,14.65-28h0c0-5.63-1.81-9.65-4.68-11.56Z" style="fill:#ba68c8; isolation:isolate; opacity:.8;"/><path d="M183.95,50.91h0l-.46-.26-.28-.16-10.05-5.88v-.7c0-12.37-4.16-21-10.72-24.67h0l-19.33-11.15h0c-5.32-3.06-12.26-2.78-19.85,1.6-3.52,2.09-6.74,4.65-9.57,7.6-1.24-1.29-2.65-2.41-4.19-3.32h0L90.8,3.22h0c-6.85-4.54-16-4.45-26.1,1.38C43.57,16.85,26.34,49.67,26.34,77.92c0,3.13,.23,6.26,.71,9.35l-2.64,1.53C10.93,96.61,0,117.46,0,135.43H0c0,9.92,3.34,17,8.59,20h0l19.58,11.35h0c4.25,2.43,9.75,2.24,15.77-1.23l35.49-20.49,94.55-54.59c8.09-4.67,14.65-17.2,14.65-28h0c0-5.63-1.81-9.65-4.68-11.56Z" style="fill:#fff; isolation:isolate; opacity:.2;"/><path d="M162.47,19.27h0c-5.29-2.95-12.16-2.61-19.65,1.72-3.69,2.21-7.06,4.93-10,8.07l-17.81-10.31-1.74-1,.43-.44c2.84-2.95,6.06-5.5,9.57-7.59,7.59-4.38,14.53-4.66,19.85-1.6h0l19.35,11.15Z" style="fill:#fff; isolation:isolate; opacity:.35;"/><path d="M113.7,17.3c.46,.46,.89,.94,1.31,1.45l-1.74-1,.43-.45Z" style="fill:#fff; isolation:isolate; opacity:.8;"/><path d="M109.04,13.71h0c-6.68-3.72-15.34-3.29-24.8,2.17s-18.4,15.34-25.13,27l-19.54-11.27c6.73-11.68,15.51-21.47,25.12-27,10.09-5.82,19.26-5.91,26.11-1.37h0l18.24,10.47Z" style="fill:#fff; isolation:isolate; opacity:.35;"/><path d="M46.57,98.55l-2.65,1.52c-9.13,5.27-17.1,16.57-21.27,28.9L3.13,117.69c3.33-9.83,9.07-19,15.89-25l8-5.44,19.55,11.3Z" style="fill:#fff; isolation:isolate; opacity:.35;"/><path d="M173.98,51.42l-1.4,.81c.38-2.74,.58-5.51,.59-8.28,0-22.36-13.6-32.64-30.37-23-7.77,4.49-14.87,12.49-20.24,22-.76-26.92-17.62-39.06-38.32-27.1-21.19,12.23-38.37,45-38.37,73.29,0,3.13,.23,6.26,.71,9.36l-2.64,1.52c-13.48,7.84-24.37,28.71-24.37,46.69h0c0,18,10.93,26.62,24.41,18.84l35.49-20.49h0l94.55-54.59c8.09-4.67,14.65-17.2,14.65-28h0c-.04-10.76-6.6-15.72-14.69-11.05Z" style="fill:#ba68c8;"/><path d="M173.98,51.42l-1.4,.81c.38-2.74,.58-5.51,.59-8.28,0-22.36-13.6-32.64-30.37-23-7.77,4.49-14.87,12.49-20.24,22-.76-26.92-17.62-39.06-38.32-27.1-21.19,12.23-38.37,45-38.37,73.29,0,3.13,.23,6.26,.71,9.36l-2.64,1.52c-13.48,7.84-24.37,28.71-24.37,46.69h0c0,18,10.93,26.62,24.41,18.84l35.49-20.49h0l94.55-54.59c8.09-4.67,14.65-17.2,14.65-28h0c-.04-10.76-6.6-15.72-14.69-11.05Z" style="fill:#fff; isolation:isolate; opacity:.7;"/><path d="M34.43,163.42c-6,0-9.9-6.56-9.9-16.71,0-16.08,10-35.45,21.91-42.31l2.64-1.52c1.81-1.02,2.8-3.05,2.49-5.11h0c-.44-2.84-.66-5.71-.65-8.58,0-26.61,16.09-57.55,35.86-69,4.52-2.61,8.81-3.94,12.73-3.94,10.7,0,17.64,10.29,18.1,26.85h0c.08,2.76,2.38,4.93,5.14,4.86,1.75-.05,3.35-1.01,4.21-2.54h0c5.15-9.11,11.68-16.26,18.39-20.14,2.87-1.82,6.17-2.85,9.56-3,8.08,0,13.31,8.48,13.31,21.6,0,2.54-.19,5.08-.54,7.6h0c-.37,2.74,1.55,5.25,4.29,5.62,1.09,.15,2.21-.07,3.16-.62l1.4-.81c1-.64,2.14-1.01,3.32-1.09,2.64,0,3.83,3.93,3.83,7.83,0,9-5.57,19.85-12.15,23.65L41.53,161.14c-2.1,1.33-4.52,2.09-7,2.2l-.1,.08Z" style="fill:#fff; isolation:isolate; opacity:.7;"/></g></g></g></g></svg>