<?xml version="1.0" encoding="UTF-8"?><svg xmlns="http://www.w3.org/2000/svg" viewBox="0 0 174.9 149.32"><g id="a"/><g id="b"><g id="c"><g id="d"><g id="e"><path d="M167.84,109.35s3.34,3.33,1,9.49c-2.23,6-9.53,7-9.53,7,0,0,1,9.81-14.92,11,.07-.68,.07-1.38,0-2.06,0,0,7.31-.29,7.42-11.64s-8.4-13.1-8.4-13.1c1.83-2.67,2.32-6.04,1.32-9.12-2.08-6.22-6.48-5.56-6.48-5.56,0,0,3.19-2.34,1.79-8.14-1.3-5.39-5.35-6.09-5.35-6.09,0,0,3-5.36-2.47-12.6s-11.09-6.12-11.09-6.12c-.19-3.57-1.56-6.98-3.88-9.7-3.89-4.53-10-3.89-10-3.89,.13-4.63-1.78-9.08-5.22-12.18-5.82-5.5-11.66-5.25-11.66-5.25,.17-3.2-1.31-6.26-3.93-8.11-3-2.34-7.01-2.91-10.54-1.51,0,0-1-7.12-7.16-8.48-8.05-1.76-12,3-12,3,0,0-2.68-3.53-8.81-4.53,2.24-2.94,4.98-5.46,8.1-7.45,7.25-4.44,18.23-1.61,18.23-1.61C77.03,.69,80.43-.25,83.84,.06c3.32,.26,6.33,2.02,8.19,4.78,0,0,3.36-2.48,11.5-2s10.09,6.9,10.09,6.9c4.02-.11,7.97,1,11.34,3.19,6,3.73,6,11.7,6,11.7,0,0,7.27-2,13.64,4.61s3.56,12.76,3.56,12.76c7.92,.71,13.76,7.7,13.04,15.62-.18,1.97-.76,3.89-1.71,5.63,1.89,.6,3.39,2.04,4.07,3.9,1.24,3.19,0,5.14,0,5.14,0,0,6.19,2.64,7.8,9.2s-1.61,10.45-1.61,10.45c3.29,1.88,5.27,5.43,5.14,9.22,.03,6.78-7.05,8.19-7.05,8.19Z" style="fill:#ba68c8;"/><path d="M167.84,109.35s3.34,3.33,1,9.49c-2.23,6-9.53,7-9.53,7,0,0,1,9.81-14.92,11,.07-.68,.07-1.38,0-2.06,0,0,7.31-.29,7.42-11.64s-8.4-13.1-8.4-13.1c1.83-2.67,2.32-6.04,1.32-9.12-2.08-6.22-6.48-5.56-6.48-5.56,0,0,3.19-2.34,1.79-8.14-1.3-5.39-5.35-6.09-5.35-6.09,0,0,3-5.36-2.47-12.6s-11.09-6.12-11.09-6.12c-.19-3.57-1.56-6.98-3.88-9.7-3.89-4.53-10-3.89-10-3.89,.13-4.63-1.78-9.08-5.22-12.18-5.82-5.5-11.66-5.25-11.66-5.25,.17-3.2-1.31-6.26-3.93-8.11-3-2.34-7.01-2.91-10.54-1.51,0,0-1-7.12-7.16-8.48-8.05-1.76-12,3-12,3-.76-.89-1.66-1.66-2.67-2.27-.17-.11-.32-.2-.51-.3-1.73-1.02-3.64-1.7-5.63-2,2.24-2.93,4.99-5.44,8.1-7.41,7.25-4.44,18.23-1.61,18.23-1.61C77.03,.69,80.43-.25,83.84,.06c3.32,.26,6.33,2.02,8.19,4.78,0,0,3.36-2.48,11.5-2s10.09,6.9,10.09,6.9c4.02-.11,7.97,1,11.34,3.19,6,3.73,6,11.7,6,11.7,0,0,7.27-2,13.64,4.61s3.56,12.76,3.56,12.76c7.92,.71,13.76,7.7,13.04,15.62-.18,1.97-.76,3.89-1.71,5.63,1.89,.6,3.39,2.04,4.07,3.9,1.24,3.19,0,5.14,0,5.14,0,0,6.19,2.64,7.8,9.2s-1.61,10.45-1.61,10.45c3.29,1.88,5.27,5.43,5.14,9.22,.03,6.78-7.05,8.19-7.05,8.19Z" style="isolation:isolate; opacity:.05;"/><path d="M146.1,109.03c1.2-2.75,1.35-5.86,.4-8.71-1.19-3.55-3.19-5.38-5.06-6.24,.96-2.32,1.11-4.89,.42-7.3-.54-2.84-2.3-5.29-4.81-6.72,.61-2.52,.81-7.17-3.35-12.67s-8.42-6.67-10.89-6.89c-.54-3.32-1.97-6.43-4.15-9-2.46-2.73-5.92-4.36-9.59-4.53-.39-4.47-2.43-8.64-5.72-11.69-3.03-2.98-6.91-4.95-11.11-5.63-.37-3.16-2.06-6.02-4.65-7.87-2.93-2.26-6.69-3.12-10.31-2.37-.87-2.61-3-6.82-8.12-7.94-6.18-1.36-10.3,.71-12.35,2.24-2.16-1.81-4.74-3.05-7.5-3.62-.96,1.08-1.85,2.21-2.67,3.39,5.86,.63,8.44,3.78,8.58,4,.35,.45,.88,.72,1.45,.74,.57,.01,1.11-.22,1.49-.65,.14-.16,3.45-3.86,10.19-2.37,4.78,1,5.68,6.66,5.71,6.89,.16,1.04,1.14,1.76,2.18,1.6,.17-.03,.33-.08,.49-.15,2.9-1.11,6.18-.61,8.61,1.32,2.08,1.44,3.28,3.84,3.19,6.37-.06,.54,.12,1.09,.49,1.49,.35,.43,.89,.66,1.45,.62,.19,0,5.18-.09,10.29,4.73,2.99,2.72,4.66,6.6,4.57,10.64-.05,.56,.14,1.12,.54,1.52,.4,.4,.96,.6,1.53,.55,.05,0,5.23-.46,8.39,3.22,2.02,2.39,3.21,5.35,3.42,8.47,0,.56,.26,1.08,.69,1.44,.43,.35,.99,.51,1.54,.42,.19,0,4.63-.69,9.25,5.4s2.42,10.4,2.33,10.56c-.29,.53-.3,1.16-.05,1.71,.26,.55,.76,.95,1.36,1.07,.12,0,2.89,.63,3.85,4.66,1.06,4.39-1,6.12-1.07,6.17-.69,.5-.94,1.41-.62,2.2,.32,.81,1.14,1.3,2,1.2,.29,0,3-.16,4.44,4.27,.83,2.49,.46,5.22-1,7.4-.39,.52-.49,1.19-.27,1.8,.23,.6,.74,1.05,1.37,1.2,.29,.06,7,1.66,6.92,11.22-.1,9.28-5.42,9.75-5.62,9.77-1.05,.06-1.86,.96-1.81,2.01,0,.05,0,.11,.02,.16,.04,.49,.04,.98,0,1.47,.6,.23,1.23,.33,1.87,.31,.67,0,1.28-.14,1.9-.22v-.37c2.67-.92,7.26-3.85,7.36-13.09,.11-8.26-4.11-12.48-7.57-14.2Z" style="isolation:isolate; opacity:.2;"/><path d="M144.37,134.79s7.31-.29,7.43-11.64-8.41-13.09-8.41-13.09c1.83-2.68,2.31-6.06,1.31-9.14-2.06-6.21-6.47-5.55-6.47-5.55,0,0,3.19-2.34,1.79-8.14-1.3-5.4-5.35-6.08-5.35-6.08,0,0,3-5.38-2.48-12.62s-11.09-6.12-11.09-6.12c-.2-3.57-1.55-6.98-3.87-9.7-3.88-4.52-10-3.87-10-3.87,.14-4.62-1.74-9.08-5.15-12.2-5.82-5.5-11.65-5.25-11.65-5.25,.16-3.2-1.32-6.26-3.94-8.11-2.99-2.34-7-2.91-10.53-1.51,0,0-1-7.12-7.18-8.48-8-1.77-12,3-12,3,0,0-5.44-7.2-18.54-4-11,2.67-11.78,10.89-11.78,10.89,0,0-11.28-2.11-16.45,5.64s-3.56,17.77-3.56,17.77c0,0-6.46,4.53-6.14,11.31,.08,3.79,1.2,7.48,3.24,10.67,0,0-6.47,11-1.94,20,2.5,5.25,7.06,9.24,12.6,11,0,0,0,9.69,4.52,14.54s12.6,4.52,12.6,4.52c1.48,4.35,4.61,7.95,8.73,10,6.78,3.23,13.89,.64,13.89,.64,2.12,2.56,4.92,4.47,8.08,5.5,5.17,1.61,11.63,0,11.63,0,.6,3.47,3.32,6.18,6.79,6.78,6.14,1.29,9.37-2.58,9.37-2.58,0,0,1.94,4.2,6.46,4.52,2.63,.22,5.23-.72,7.11-2.58,0,0,2.59,8.07,13.25,8.4s13.28-4.28,13.28-4.28c0,0,5.14,3.64,10.31-.24,3.03-2.39,4.59-6.17,4.14-10Z" style="fill:#ba68c8;"/><path d="M144.37,134.79s7.31-.29,7.43-11.64-8.41-13.09-8.41-13.09c1.83-2.68,2.31-6.06,1.31-9.14-2.06-6.21-6.47-5.55-6.47-5.55,0,0,3.19-2.34,1.79-8.14-1.3-5.4-5.35-6.08-5.35-6.08,0,0,3-5.38-2.48-12.62s-11.09-6.12-11.09-6.12c-.2-3.57-1.55-6.98-3.87-9.7-3.88-4.52-10-3.87-10-3.87,.14-4.62-1.74-9.08-5.15-12.2-5.82-5.5-11.65-5.25-11.65-5.25,.16-3.2-1.32-6.26-3.94-8.11-2.99-2.34-7-2.91-10.53-1.51,0,0-1-7.12-7.18-8.48-8-1.77-12,3-12,3,0,0-5.44-7.2-18.54-4-11,2.67-11.78,10.89-11.78,10.89,0,0-11.28-2.11-16.45,5.64s-3.56,17.77-3.56,17.77c0,0-6.46,4.53-6.14,11.31,.08,3.79,1.2,7.48,3.24,10.67,0,0-6.47,11-1.94,20,2.5,5.25,7.06,9.24,12.6,11,0,0,0,9.69,4.52,14.54s12.6,4.52,12.6,4.52c1.48,4.35,4.61,7.95,8.73,10,6.78,3.23,13.89,.64,13.89,.64,2.12,2.56,4.92,4.47,8.08,5.5,5.17,1.61,11.63,0,11.63,0,.6,3.47,3.32,6.18,6.79,6.78,6.14,1.29,9.37-2.58,9.37-2.58,0,0,1.94,4.2,6.46,4.52,2.63,.22,5.23-.72,7.11-2.58,0,0,2.59,8.07,13.25,8.4s13.28-4.28,13.28-4.28c0,0,5.14,3.64,10.31-.24,3.03-2.39,4.59-6.17,4.14-10Z" style="fill:#fff; isolation:isolate; opacity:.2;"/><g style="opacity:.05;"><path d="M59.19,42.55c-1.1-2.14-2.45-4.16-4-6-1.15-1.31-3-3.25-4.89-3-.56,.06-.2,1,.2,1,1.75,.31,3,1.8,3.94,3.17,1.03,1.49,1.95,3.04,2.76,4.65,2.28,4.21,3.59,8.88,3.83,13.66,.16,4-.82,8.09-4.65,10.07-4.49,2.32-10.29,.85-14.52-1.31-3.61-1.68-6.14-5.06-6.73-9-.07-.5-.85-.92-.83-.19-.04,2.16,.5,4.29,1.56,6.17,1.16,1.75,2.74,3.18,4.59,4.17,4.34,2.54,9.6,4,14.59,2.71,11.69-2.98,8.34-18.33,4.15-26.1Z"/><path d="M46.52,48.75c-.18-1.63-.73-3.2-1.61-4.58-.85-1.4-1.93-2.65-3.19-3.7-1.24-1.14-2.71-2-4.32-2.51-.69-.18-.64,.79-.22,1.06,1.3,.71,2.53,1.53,3.69,2.46,1.08,.98,2,2.13,2.71,3.4,.66,1.22,1.06,2.55,1.18,3.93,.06,.74,.03,1.48-.07,2.21-.1,.7-.28,1.36-.39,2.06-.05,.32,.36,1,.72,.64,1.18-1.37,1.73-3.18,1.5-4.97Z"/><path d="M52.22,25.23c-3.55-.96-7.24-1.29-10.91-1-3.46,.26-6.8,1.43-9.67,3.39-5.09,3.37-8.91,8.38-9.87,14.49-.53,3.37-.82,7.59,2.16,10,.36,.28,1,.12,.81-.43-.82-1.89-1.22-3.94-1.16-6,.1-1.76,.36-3.5,.8-5.2,1-3.46,2.96-6.56,5.66-8.94,2.79-2.75,6.31-4.63,10.15-5.42,2.02-.28,4.07-.34,6.1-.15,2.02,.28,4.06,.38,6.1,.29,.55-.03,.18-.93-.17-1.03Z"/><path d="M29.5,62.9c-3.06-4.91-8.86-8.83-14.75-8.71-4.62,.09-11.74,2.67-11.08,8.44,.43,2.9,2.06,5.48,4.5,7.11,1.11,.72,2.52,.8,3.71,.21,1.38-.79,1.52-2.53,1.89-3.9,.06-.22-.19-.71-.44-.44-1.14,1.22-2.25,4.22-4.36,2.73-1.68-1.31-2.84-3.16-3.3-5.24-.83-4.45,4.31-6.6,7.85-7.1,4.93-.71,9.46,1.89,12.67,5.46,2.08,2.32,4.82,7.13,1.44,9.53-1.11,.8-2.49,1.12-3.84,.9-1.56-.3-1.71-1.5-2-2.86-.15-.67-1.36-.95-1.59-.21-.49,1.68,.31,3.47,1.89,4.23,1.59,.74,3.4,.83,5.05,.24,1.68-.47,3.07-1.67,3.78-3.27,.88-2.31-.19-5.14-1.42-7.12Z"/><path d="M74.94,118.81c-2.58-5-7.4-8.39-12.36-10.69-.83-.38-1.66-.74-2.5-1.07,.98-.88,1.83-1.89,2.53-3,1.46-2.19,2.57-4.59,3.29-7.12,.78-2.46,.44-5.13-.94-7.31-.71-1.08-1.67-1.97-2.81-2.58-1.13-.6-3.05-1.26-4.3-.69-.5,.23,.06,1,.39,1.05,1.29,.31,2.42,.32,3.55,1.13,.96,.71,1.67,1.69,2.05,2.82,.57,1.9,.49,3.94-.24,5.79-.69,2.05-1.64,4.01-2.83,5.82-.57,.88-1.24,1.68-2,2.4-.36,.31-.76,.57-1.19,.79-4.26-1.49-8.66-2.6-13-4-6.25-2-12-5.07-16.38-10-2.74-2.87-4.63-6.43-5.47-10.31-.28-1.62-.38-3.27-.3-4.91,.06-1.34,.17-3.11,1.16-4.13,.47-.49-.43-1.48-1-1.12-2.07,1.34-2,4.67-2,6.86-.03,3.46,.82,6.87,2.48,9.91,3.38,5.86,8.49,10.55,14.62,13.41,10.38,5,23.59,5.07,32,13.79,2.26,2.21,3.81,5.03,4.47,8.12,.34,1.68,.34,3.42,0,5.1-.35,1.59-1.36,2.73-1.87,4.21-.14,.39,.42,1.09,.84,.88,2.45-1.17,3.31-4.49,3.49-7,.18-2.82-.4-5.63-1.68-8.15Z"/><path d="M61.88,119.4c-2.84-2.05-6.31-2.56-9.64-3.32s-6.67-1.44-9.94-2.43c-1.63-.49-3.23-1.07-4.79-1.75-2.24-1-4.19-2.43-6.39-3.42-.23-.13-.52-.05-.66,.17-.08,.14-.09,.31-.01,.46,.66,1.41,2.35,2.45,3.64,3.24,1.29,.79,2.65,1.45,4.06,2,2.98,1.13,6.04,2.03,9.16,2.69,3.74,.86,7.8,1.29,11.4,2.62,1.11,.41,2.15,.99,3.09,1.7,1.14,.84,2.81,2.15,2.93,3.66,0,.49,.88,.94,1,.25,.3-2.52-1.96-4.5-3.85-5.87Z"/><path d="M16.5,91.74c-1.01-1.86-2.31-3.55-3.85-5-2-2.19-3.47-4.49-3.46-7.6,.06-1.64,.27-3.26,.63-4.86,.31-1.65,.84-3.55,.19-5.16-.11-.28-.51-.51-.7-.18-.32,.77-.52,1.59-.58,2.43-.13,.76-.27,1.5-.42,2.25-.33,1.47-.58,2.97-.72,4.47-.21,2.72,.6,5.42,2.27,7.58,1.27,1.66,2.84,3.05,4.09,4.73,.59,.75,1.03,1.61,1.27,2.53,.36,1.56-.17,3-.52,4.52,0,.23,.19,.92,.52,.62,1.76-1.61,2.28-4.17,1.28-6.33Z"/><path d="M132.7,82.44c-1.51,.49-2.96,1.16-4.32,2-1.57,.76-3.26,1.23-5,1.37-3.1,.24-6.11-.77-9.2-.75-2.74-.03-5.35,1.13-7.17,3.17-.69,.74-1.29,1.56-1.78,2.45-.62-.69-1.27-1.37-1.95-2-2.55-2.38-5.56-4.22-8.84-5.4-3.68-1.18-7.47-1.97-11.31-2.35-3.46-.46-6.81-.9-10-2.49-2.62-1.32-5.67-3.17-6.46-6.21-.14-.51-1-.67-.9,0,.22,2.62,2.18,4.6,4.15,6.14,2.17,1.69,4.68,2.9,7.36,3.55,7,1.65,14.46,1.46,20.67,5.53,5.42,3.41,9.17,8.93,10.35,15.22,.93,5.27,1.34,11.85-2.82,15.89-2.95,2.74-6.26,5.08-9.84,6.93-.83,.45-1.74,1-2.62,1.55,.48-1.57,.8-3.18,.95-4.82,.39-3.34,.1-6.72-.84-9.94-.98-3.04-2.59-5.84-4.73-8.21-2.52-2.82-5.66-4.68-8.68-6.9-1.81-1.27-3.4-2.82-4.73-4.59-1.5-2-2.75-4.3-4.08-6.45-.26-.42-.56,.13-.42,.44,1.52,3.38,3,6.78,5.55,9.54s5.81,4.55,8.55,7c4.73,4.24,7.44,10.29,7.44,16.65,.05,2.02-.18,4.04-.7,6-.36,1.33-.91,2.6-1.31,3.91-.7,.82-1.17,1.82-1.36,2.88-.08,.5,.78,1.27,1.19,.76,1.03-1.37,2.21-2.62,3.52-3.73,1.26-.93,2.6-1.74,4-2.44,3.23-1.7,6.25-3.77,9-6.18,2.23-1.84,3.82-4.35,4.52-7.16,.61-2.84,.73-5.77,.35-8.65-.22-2.91-.89-5.76-2-8.46-.62-1.33-1.36-2.59-2.22-3.78,.15-.56,.36-1.1,.62-1.62,.61-.98,1.37-1.86,2.27-2.59,2.09-1.74,4.85-1.57,7.39-1.23,2.92,.4,5.82,.8,8.72,0,1.43-.38,2.81-.95,4.1-1.67,1.23-.58,2.34-1.39,3.27-2.39,.25-.36-.24-1.07-.69-.97Z"/><path d="M123.54,71.49c-1.71-4.05-6.16-5.76-10-7.13-4.34-1.38-8.5-3.28-12.38-5.67-1.81-1.17-3.44-2.61-4.81-4.27-2-2.69-3.21-5.89-3.5-9.23-.07-.54-1.31-1.1-1.45-.35-1.55,8.33,5.32,14.32,12,17.74,3.59,1.84,7.4,3,11.15,4.4,3.05,1.17,7.8,3.52,7.13,7.58-.32,2-2.14,2.59-3.85,3-2.3,.49-4.65,.68-7,.58-4.86-.25-9.67-1.02-14.36-2.32-8.71-2.21-16.2-7.78-20.83-15.48-2.62-4.46-4.13-9.48-4.42-14.64-.15-2.57-.01-5.14,.4-7.68,.45-3,1-6.26,2.75-8.83,.11-.17,0-.68-.28-.46-1.5,1.62-2.49,3.64-2.88,5.81-.59,2.25-1.02,4.53-1.31,6.84-.63,5.14-.02,10.35,1.8,15.2,3.49,8.64,10.22,15.57,18.75,19.31,4.44,1.74,9.07,2.94,13.8,3.56,5,.8,10.28,1.15,15.2-.21,1.76-.34,3.29-1.44,4.17-3,.66-1.52,.63-3.25-.08-4.75Z"/><path d="M107.03,70.87c-1.78-.61-3.72-.8-5.52-1.39-1.84-.56-3.63-1.26-5.37-2.09-3.13-1.58-5.89-3.81-8.08-6.55-2.48-2.96-4.2-6.48-5.03-10.25-.73-4,.37-7.84,.59-11.8,0-.33-.56-1.14-.8-.55-1.85,4.29-2.44,9.02-1.68,13.63,.92,3.89,2.77,7.5,5.4,10.52,2.4,2.98,5.49,5.33,9,6.84,1.94,.78,3.95,1.38,6,1.81,1.68,.36,4,1.07,5.69,.58,.27-.09,.11-.66-.2-.75Z"/><path d="M137.11,103.72c-3.81-3.56-10.69-4.62-11.9-10.51-.08-.36-.77-.75-.83-.18-.43,4.91,5.4,8,8.94,10.15,2.17,1.21,3.87,3.13,4.81,5.43,1.16,2.85,.75,5.52-.23,8.33-.11,.34,.28,.88,.63,.64,4.76-3.29,1.94-10.72-1.42-13.86Z"/><path d="M145.83,125.12c-2.05,1.83-4.08,3.23-6.9,3.35-2.4,.07-4.77-.51-6.88-1.66-2.31-1.04-3.93-3.19-4.3-5.69-.19-1.49-.11-3.01,.26-4.47,.43-1.42,.74-2.88,.91-4.35l.2,.15c1.19,1.11,2.14,2.45,2.79,3.94,.12,.21,.62,.52,.8,.18,.86-1.61-.39-3.34-1.53-4.46-1.24-1.17-2.61-2.17-4.1-3-1.67-.94-3.28-2-4.81-3.16-.77-.61-1.49-1.28-2.16-2-1-1.05-1.73-2.25-2.65-3.33-.17-.2-.39,0-.38,.22,.11,1.91,1.76,3.79,3.05,5.07,1.5,1.43,3.15,2.68,4.93,3.73,.79,.48,1.57,1,2.34,1.49-.17,.11-.28,.28-.32,.48-.29,1.48-.85,2.9-1.23,4.35-.37,1.37-.52,2.8-.45,4.22,0,2.3,.9,4.52,2.51,6.17,3.47,3.11,8.15,4.51,12.76,3.82,1.2-.19,2.35-.61,3.4-1.23,1.28-.66,2.2-1.86,2.53-3.26,.09-.34-.41-.92-.77-.56Z"/><path d="M130.71,140.95c-.09-.69-.29-1.37-.59-2-.61-1.36-1.37-2.64-2.27-3.82-.96-1.19-2.16-2.16-3.53-2.84-.68-.36-1.39-.66-2.13-.89l-.43-.14c.25-.64,.4-1.31,.45-2,.09-2.16-.18-4.33-.8-6.4-.57-2.05-1.49-4.17-3.54-5.11-.82-.38-.86,.8-.29,1.16,.88,.55,1.33,2.24,1.63,3.16,.38,1.19,.65,2.42,.8,3.67,.22,1.82,.39,3.79-.44,5.43-.09,.06-.14,.16-.14,.26-.1,.19-.22,.37-.34,.54-1.64,2.1-4.37,3-6.68,4.16s-4.86,2.5-5.21,5.24c-.06,.43,.61,1.05,1,.6,1.56-1.91,3.54-3.44,5.78-4.46,2.1-.83,4.08-1.96,5.86-3.35,.45-.41,.86-.88,1.2-1.39h.16l.85,.26c.57,.19,1.12,.42,1.65,.69,1.03,.52,1.94,1.25,2.68,2.13,.57,.72,1.08,1.48,1.55,2.27,.34,.55,.65,1.12,.92,1.71,.26,.52,.49,1.06,.68,1.61,.08,.33,.2,.64,.36,.94,.08,.11,.24,.3,.4,.22,.57-.27,.47-1.12,.42-1.65Z"/><path d="M114.03,120.84c0-.32-.48-.69-.58-.18-.27,1.78-1.06,3.43-2.28,4.76-1.22,1.2-2.56,2.27-4,3.19-1.42,.92-2.73,1.99-3.9,3.2-.61,.63-1.1,1.36-1.46,2.16-.35,.83-.41,1.76-.18,2.63,0,.18,.33,.68,.57,.41,.67-.89,1.27-1.82,1.8-2.8,.45-.71,.99-1.35,1.6-1.93,1.18-1.03,2.43-1.99,3.74-2.85,1.43-.91,2.67-2.09,3.66-3.46,.94-1.53,1.31-3.35,1.03-5.13Z"/><path d="M62.68,79.87c-1.38-.66-2.85-1.08-4.37-1.26-4.39-.56-8.84-.32-13.15,.7-3.49,.68-6.89,1.77-10.13,3.24-1.69,.77-3.29,1.73-4.77,2.86-1,.77-3,2.2-2.43,3.65,.09,.23,.36,.55,.64,.47,1.45-.42,2.57-2,3.78-2.86,1.28-.92,2.64-1.7,4.08-2.34,2.84-1.28,5.81-2.25,8.86-2.91,3.73-.92,7.57-1.33,11.41-1.22,1.32,.05,2.64,.21,3.94,.46,1.28,.29,2.47,.85,3.5,1.66,.12,.09,.29,.08,.38-.04,0,0,.01-.02,.02-.03,.46-1.13-.95-1.95-1.76-2.38Z"/><path d="M41.7,70.77c-.58,.31-1.1,.72-1.53,1.22-.56,.54-1.13,1-1.72,1.54-1.2,.99-2.53,1.83-3.94,2.5-1.34,.62-2.75,1.07-4.21,1.32-.68,.11-1.37,.18-2.06,.22-.67-.05-1.35,0-2,.16-.5,.18-.22,.86,.11,1.06,1.3,.79,3.38,.48,4.8,.24,1.6-.29,3.15-.8,4.6-1.54,1.42-.71,2.74-1.6,3.94-2.63,.61-.53,1.18-1.1,1.7-1.72,.52-.46,.84-1.1,.9-1.79,.05-.3-.26-.72-.59-.58Z"/></g><g style="opacity:.05;"><path d="M115.32,12.61c-.17-.19-.37,0-.4,.18-.19,1,0,2-.13,3-.17,1.34-.56,2.65-1.18,3.85-1.18,2.33-3.18,4.7-5.76,5.5-6.35,2-11.79-2.17-16.19-6.22-.25-.81-.55-1.6-.89-2.38-.91-2-2.13-3.86-3.61-5.49-1.35-1.58-2.83-3.03-4.43-4.34-.82-.7-1.73-1.3-2.7-1.78-.78-.47-1.68-.69-2.59-.61-.51,.11-.26,.88,.14,1,1.62,.53,3.08,1.46,4.25,2.7,1.33,1.25,2.58,2.59,3.74,4,1.34,1.51,2.44,3.22,3.24,5.08,.45,1.11,.78,2.27,1,3.45,.1,.53,.19,1.06,.3,1.58,.18,.66,.44,1.29,.76,1.89,.11,.25,.49,.53,.67,.19,.38-.75,.56-1.57,.54-2.41,1.52,1.74,3.38,3.15,5.46,4.15,3.3,1.65,7.07,2.06,10.65,1.17,2.81-.85,5.18-2.75,6.61-5.31,1.59-2.69,2.77-6.59,.52-9.2Z"/><path d="M129.18,33.93c-2.24-1.69-5.11-3.25-8-3.17-.57,0-.17,1.06,.28,1.09,2,.17,4.23,1.49,5.85,2.67,1.35,1,3.45,2.68,3.4,4.56-.05,2.63-4.56,3.06-6.4,3-3.56-.24-6.97-1.52-9.8-3.68-1.49-1.01-2.83-2.21-4-3.58-1.34-1.62-1.91-3.57-2.86-5.42-.15-.28-.71-.54-.76,0-.05,2.28,.65,4.52,2,6.36,1.15,1.66,2.57,3.12,4.21,4.3,3.24,2.51,7.18,3.95,11.28,4.14,2.79,.06,7.81-.92,8.46-4.28,.44-2.49-1.91-4.66-3.66-5.99Z"/><path d="M157.43,61.75c-1.19-.34-2.65,.12-3.85,.3-1.43,.22-2.86,.46-4.3,.61-2.84,.34-5.71,.22-8.51-.37-2.31-.51-4.51-1.41-6.51-2.66-2.27-1.56-4.29-3.45-6-5.6-.31-.35-.75-.2-.73,.27,.2,1.28,.74,2.49,1.57,3.49,.75,1.05,1.66,1.97,2.69,2.75,2.19,1.61,4.68,2.78,7.31,3.45,2.98,.79,6.09,1.05,9.16,.76,1.71-.16,3.41-.42,5.1-.76,.87-.16,1.72-.37,2.58-.56,.58-.13,1.54-.17,1.89-.73,.17-.32,.06-.72-.26-.89-.04-.02-.09-.04-.14-.06Z"/><path d="M148.56,47.22c-.61,0-.12,1,.23,1.06,1.59,.44,2.07,3.83,1.37,5.17-1.05,2-4.3,2.08-6.23,2.1-3.12,.02-6.19-.77-8.91-2.31-2.57-1.47-4.63-3.6-7.1-5.2-.42-.26-.52,.37-.31,.63,2.32,2.75,4.73,5.53,8,7.1,3.43,1.59,7.26,2.14,11,1.57,2.47-.37,5.47-1.46,5.72-4.35,.27-2.29-1.04-5.87-3.77-5.77Z"/><path d="M160.61,71.27c-.12-.07-.25-.12-.38-.17-.19-.06-.39-.11-.59-.15-.38-.08-.76-.13-1.14-.15-.84-.04-1.67,.02-2.5,.16-1.86,.31-3.66,.85-5.38,1.62-1.47,.6-2.77,1.55-3.8,2.75-1.09,1.59-1.67,3.47-1.68,5.39-.11,1.3,.16,2.61,.77,3.76,1.04,1.8,2.93,2.93,5,3,.17,0,.34-.04,.49-.13,.19-.19,.23-.49,.1-.73-.14-.22-.32-.41-.54-.56-.93-.65-1.76-1.45-2.45-2.35-1.87-2.92-1.01-6.79,1.9-8.66,.03-.02,.06-.04,.1-.06,1.57-.87,3.25-1.52,5-1.94,1.87-.6,3.87-.6,5.74,0,.2,.02,.38-.13,.4-.34,0-.02,0-.04,0-.06,.09-.35-.77-1.25-1.04-1.38Z"/><path d="M165.28,94.17c-2-4.3-6.84-6.94-11.37-7.7-2.47-.42-6.78-.6-8.39,1.74-.1,.12-.16,.28-.17,.44,.03,.24,.21,.44,.45,.49,.23,.05,.48,.05,.71,0,2-.37,3.77-1,5.86-.84,3.96,.33,7.6,2.33,10,5.5,1.68,2.49,2.12,6.61,.22,9.13-1.63,2.15-4.6,2.16-7,1.51-1.37-.28-2.64-.95-3.65-1.92-.85-1-.26-2.09,.47-3,.38-.46-.31-1.48-.86-1.12-1.64,1.06-3,2.8-1.88,4.76,.9,1.3,2.22,2.26,3.73,2.73,3.26,1.26,7.25,1.56,10.14-.78,3.09-2.48,3.31-7.56,1.74-10.94Z"/><path d="M160.75,115.12c-.72-1.54-1.78-2.91-3.09-4-1.24-1.13-2.89-1.67-4.56-1.51-.55,.1-.21,1,.23,1,2.83,.21,4.72,2.94,5.68,5.34,.48,1.2,.77,2.46,.86,3.75,.03,.62,.01,1.24-.06,1.85,0,.22-.08,.44-.11,.66-.11,.42-.14,.86-.11,1.29,.08,.35,.36,.73,.76,.58,.67-.27,1.15-1.31,1.36-1.94,.23-.79,.33-1.61,.27-2.43-.09-1.6-.51-3.16-1.23-4.59Z"/></g><g style="opacity:.2;"><path d="M65.27,38.42c-.7-.12-1.39,.32-1.78,1.59-.9,2.86,0,7.6,.29,10.52,.37,4.2,1.07,8.36,2.1,12.44,.84,3.31,1.94,6.66,4.14,9.27,2.18,2.37,4.9,4.18,7.94,5.26,8.11,3.25,17.24,3.74,25,7.81,1,.5,2.17,1,3,.35,.59-.6,.67-1.52,.21-2.22-.47-.66-1.13-1.18-1.88-1.49-3.09-1.51-6.53-2.08-9.85-3-5.63-1.4-10.89-4-15.41-7.63-4.51-3.66-7.78-8.61-9.36-14.2-.93-3.55-1-7.24-1.53-10.86-.27-1.91-.14-4.06-.91-5.86-.3-.93-1.03-1.67-1.96-1.98Z" style="fill:#fff;"/><path d="M48.29,52.68c-.41,3.29-3.02,5.87-6.31,6.25-.61-.05-1.22,.12-1.71,.49-.77,.84,.25,2.11,1.19,2.75,3.12,2.13,6.87,4.12,10.51,3.13,3.81-1,6.14-5.15,6.31-9.1,.15-3.31-2-20.7-8.76-15.41-3.17,2.49-.84,8.56-1.23,11.89Z" style="fill:#fff;"/><path d="M41.15,52.44c2.55-8.88-14-18.81-14.59-7.31-.18,1.51,.07,3.04,.72,4.42,2.52,4.47,6.79-2.48,10.31,1.86,.38,.59,.82,1.15,1.32,1.65,.53,.51,1.36,.53,1.92,.06,.16-.2,.27-.43,.32-.68Z" style="fill:#fff;"/><path d="M80.5,91.63c.56,.72,1.23,1.33,2,1.81,6.93,5,12.81,12.3,13.52,20.81,.15,1.83,.32,4.1,2,4.8,1.03,.31,2.15,.15,3.05-.44,3.24-1.78,5.07-5.53,5.29-9.22,.07-3.72-.8-7.39-2.53-10.68-2.13-4.59-5.8-8.59-10.8-9.94-2.1-.54-15.91-2.21-12.53,2.86Z" style="fill:#fff;"/><path d="M37.32,89.95c2.08,.3,4.14,1.7,6.32,1.93,2.69,.29,5.84,0,8.1-1.59,.72-.65,1.48-1.27,2.28-1.83,1.79-.83,3.92-.39,5.24,1.08,1.26,1.49,1.89,3.41,1.75,5.35,.03,2.42-1.08,4.71-3,6.19-2.6,1.78-6.11,1.12-9.12,.22-4.78-1.43-9.52-3.35-13.29-6.61-.66-.5-1.18-1.15-1.54-1.89-.35-.77-.21-1.67,.35-2.3,.51-.4,1.14-.61,1.78-.6,.38-.02,.76,0,1.13,.05Z" style="fill:#fff;"/><path d="M80.56,64.12c4.14,4.6,9.83,7.53,15.61,9.74,5.5,2.11,14.14,5.18,20,2.71,1.8-.76,3.31-2.59,3.05-4.52s-1.92-3.14-3.56-4c-5.81-3.13-12.51-4.38-18.4-7.34-1.13-.57-2.67-1.08-3.53-.15s-.31,2.32,.57,3.11c1.41,1.26,2.99,2.33,4.69,3.17,2.21,1,6.6,1.36,8.33,3s.24,2.82-1.84,2.51c-5.83-.88-11.66-2.5-16.58-5.75-4.1-2.61-7.25-6.47-9-11-.62-1.66-1.11-3.36-1.45-5.1-.18-1,.2-3.81-.71-4.52-2.87-2.26-2.57,6.6-2.38,7.72,.72,3.89,2.52,7.5,5.2,10.42Z" style="fill:#fff;"/><path d="M70.46,19.74c-1.72-2.28-4.49-3.52-7.34-3.29-2.81,.26-5.48,1.35-7.66,3.15-3.97-3.28-9.16-4.71-14.25-3.93-3.76,.54-7.66,2.23-10,5.41-.43,.6-.76,1.53-.18,2,.26,.17,.56,.26,.87,.25,3.91,.18,7.83-1.6,11.9-1.52,4.25-.03,8.43,1.09,12.1,3.24,2.34,1.45,4.39,3.43,7,4.39,3.33,1.25,7.04-.43,8.3-3.76,.75-1.98,.47-4.2-.74-5.94Z" style="fill:#fff;"/><path d="M13.63,30.38c-2.59,3.21-4.05,7.2-4.13,11.33-.07,4.48,1.83,8.18,6.82,8.21,.48,.03,.96-.06,1.4-.26,1.36-.72,1.26-2.65,1.12-4.18-.4-4.58,.65-9.16,3-13.11,.66-1.11,1.46-2.36,1.09-3.6-.39-1.01-1.32-1.71-2.4-1.82-2.82-.42-5.2,1.33-6.9,3.43Z" style="fill:#fff;"/><path d="M87.87,125.95c.4-3.48,.18-7.01-.65-10.41-1.15-5.04-4.09-9.48-8.26-12.53-2.13-1.52-6.36-4-8.92-2.2s-1.84,5.28-.3,7.38,3.87,3.55,5.58,5.55c2.09,2.61,3.34,5.79,3.6,9.13,.31,2.94-.69,5.45-.59,8.23-.01,.98,.44,1.9,1.22,2.49,.53,.32,1.14,.48,1.76,.45,2.13-.19,4.01-1.44,5-3.33,.82-1.47,1.35-3.09,1.56-4.76Z" style="fill:#fff;"/><path d="M39.64,110.2l14.09,4.68c2.69,.78,5.29,1.87,7.73,3.25,2.45,1.41,4.34,3.63,5.32,6.28,.42,1.29,.73,2.9,2,3.35,1.25,.27,2.5-.49,2.82-1.73,.26-1.21,.09-2.48-.47-3.58-2.45-5.88-8.11-9.84-14-12.3s-12.18-3.77-18.06-6.23c-5.88-2.47-11.24-6.04-15.77-10.53-2.11-2.09-4.42-2.47-4.2,1.14,.62,9.59,13.09,13.2,20.54,15.67Z" style="fill:#fff;"/><path d="M122.21,95.18c-1.51-1.94-3.5-.47-3.58,2.24s1.95,5.22,4.22,6.83,4.91,2.71,7,4.53c1.07,.88,2.03,1.89,2.86,3,1,1.48,1.57,6.22,4.3,3.56,1.95-1.89,.93-6.28-.38-8.14-1.62-2.29-4.14-3.73-6.58-5.11-2.59-1.47-6-3.37-7.39-6.09-.13-.28-.28-.56-.45-.82Z" style="fill:#fff;"/><path d="M131.03,129.91c-2.97-1.07-5.37-3.31-6.63-6.21-.18-.45-.52-1-1-.89s-.43,.71-.36,1.14c.26,1.65,.29,3.46,1.13,4.92,.95,1.53,2.16,2.88,3.57,4,1.15,.89,2.09,2.02,2.75,3.32,.6,1.36,.51,2.91,1.39,4.18,.47,.66,1.11,1.16,1.86,1.46,2.78,1.03,5.87-.32,7-3.06,2.42-6.42-5.08-7.12-9.71-8.86Z" style="fill:#fff;"/><path d="M15.09,57.67c-1.02-.04-2.04,.12-3,.47-.97,.36-1.71,1.16-2,2.15-.16,1.5,.64,2.93,2,3.58,1.35,.6,2.76,1.03,4.21,1.29,2.3,.62,4.43,1.74,6.24,3.28,.79,.67,1.78,1.48,2.74,1.07,.71-.45,1.12-1.25,1.06-2.09,.09-1.52-.25-3.03-1-4.36-2.13-3.8-6.13-5.41-10.25-5.39Z" style="fill:#fff;"/></g><path d="M89.23,11.25c2.22,3,4.09,6.28,6.89,8.72,2.8,2.44,6.92,3.85,10.28,2.26,2.18-1.11,3.7-3.19,4.09-5.61,.53-3.18-1-7.65-3.7-9.47-3.66-2.33-8.37-2.17-11.86,.4-.22,.21-.5,.37-.8,.44-.36,0-.71-.13-1-.35-1.78-1.1-5.78-4.79-8-4-3.1,1.02,3.27,6.48,4.1,7.61Z" style="fill:#ba68c8;"/><path d="M116.87,25.71c-.15,.26-.18,.57-.09,.85,.17,.24,.44,.39,.73,.42,1.92,.46,3.88,.71,5.79,1.23,3.63,1,6.93,2.95,9.56,5.64,1.82,1.65,2.98,3.9,3.29,6.34,.14,2.43-1.41,5.06-3.8,5.48-.38,1.22,.78,2.34,1.85,3,1.72,1.11,3.53,2.05,5.43,2.81,2.1,.84,4.93,1.26,6.24-.58,1-1.37,.48-3.37-.66-4.6-1.24-1.14-2.72-1.98-4.33-2.46,2.91-3.14,2.81-8.39,.28-11.84s-7-5.12-11.31-4.86c-.84,.16-1.71,.05-2.49-.31-1.57-1-.82-3.41-.91-4.94-.17-2.74-2.23-6.89-5.5-4.74-2.58,1.73-2.99,5.97-4.08,8.56Z" style="fill:#ba68c8;"/><path d="M115.03,32.47c-.79-.14-1.6,.16-2.11,.78-.48,.85,.23,1.88,1,2.53,1,.91,2.12,1.67,3.33,2.28,2.42,1.22,5.12,1.78,7.83,1.62,.35,0,.69-.08,1-.22,2.44-1.33-.44-5.37-2.09-6-2.54-1.03-6.25-.94-8.96-.99Z" style="fill:#ba68c8;"/><path d="M137.28,65.93c-.51-.14-1.06-.05-1.5,.25-.38,.44-.43,1.07-.11,1.56,.63,1.1,1.65,2,2.32,3.14,.84,1.38,1.29,2.96,1.3,4.58,0,1.29-.26,2.67,.38,3.79,.35,.6,.93,1.05,1.24,1.66,.19,.37,.28,.79,.47,1.16,.17,.39,.53,.66,.95,.71,.66,0,1-.76,1.18-1.4,.61-2.32,.56-5,1.6-7.16,1.17-2.45,3.36-3.15,5.66-4,2.66-1.05,5.53-1.22,8.29-1.89,.38-.08,.74-.23,1.07-.43,.33-.22,.53-.6,.51-1-.16-1.33-2.83-1-3.66-.9-6.54,.94-13.17,.91-19.7-.07Z" style="fill:#ba68c8;"/><path d="M150.82,82.72c0-3.78,5.21-6.43,8.47-6.45,2.51,.07,4.94,.86,7,2.29,2.62,1.72,3.59,6,2.91,8.92-.17,.91-.62,1.74-1.27,2.39-.68,.65-1.68,.83-2.54,.46-.51-.32-.94-.75-1.27-1.25-2.46-3.03-6.1-4.85-10-5-1.29-.07-2.91-.16-3.3-1.36Z" style="fill:#ba68c8;"/><path d="M157.03,91.62c-1.93-.79-4.02-1.09-6.09-.86-.8,.04-1.57,.32-2.2,.81-.64,.52-.8,1.43-.38,2.14,.25,.29,.56,.53,.91,.68,1.68,.91,3.3,1.95,4.83,3.1,.58,.37,1.06,.89,1.37,1.5,.13,.66,.32,1.32,.56,1.95,.59,.68,1.44,1.07,2.34,1.07,.59,.13,1.2,.11,1.78-.08,.7-.42,1.18-1.14,1.29-1.95,.89-3.89-1.53-7.76-5.42-8.66-.55-.13-1.11-.19-1.67-.18" style="fill:#ba68c8;"/><path d="M112.63,43.7c-.34-.12-.71-.06-1,.14-.22,.27-.22,.66,0,.93,.23,.25,.52,.45,.84,.57,2.34,.95,4.58,2.16,6.66,3.59,2.09,1.47,3.51,3.72,3.95,6.24,.07,.63,.11,1.37,.64,1.71,.59,.29,1.31,.08,1.65-.49,.32-.55,.49-1.18,.49-1.82,.26-2.91,1-7.39-2.43-8.73-1.29-.33-2.6-.55-3.92-.66-2.28-.47-4.56-1.06-6.88-1.48Z" style="fill:#ba68c8;"/><path d="M57.61,6.93c-.81,.52-1.71,1.22-1.68,2.18,.14,.86,.81,1.53,1.67,1.66,.85,.09,1.7,.02,2.52-.22,5.61-1.18,12.12-.66,16.08,3.49,.67,.84,1.44,1.61,2.29,2.27,2.48,1.6,5.75,1.32,8.48,2,.04-.57-.1-1.14-.4-1.62C81.48,6.93,67.43,.66,57.61,6.93Z" style="fill:#ba68c8;"/><path d="M160.03,108.9c-.61,.11-1.32,.38-1.46,1s.32,1.08,.72,1.49l1.86,1.87c.45,.42,.85,.88,1.19,1.39,.81,1.32,.8,3,1.12,4.48,.1,.46,.34,1,.81,1.05,.27-.01,.52-.13,.7-.33,1.48-1.32,1.63-3.54,1.62-5.53,.04-4.32-2.32-6.2-6.56-5.42Z" style="fill:#ba68c8;"/><path d="M67.57,73.06c0,1.14-.92,2.07-2.06,2.08-1.14,0-2.07-.92-2.08-2.06s.92-2.07,2.06-2.08h0c1.14,0,2.06,.92,2.07,2.06Z" style="fill:#fafafa;"/><path d="M53.26,33.54c0,1.14-.92,2.07-2.06,2.08-1.14,0-2.07-.92-2.08-2.06,0-1.14,.92-2.07,2.06-2.08,0,0,.01,0,.02,0,1.14,0,2.05,.92,2.06,2.06Z" style="fill:#fafafa;"/><path d="M36.31,55.6c0,1.14-.93,2.07-2.07,2.07-1.14,0-2.07-.93-2.07-2.07s.93-2.07,2.07-2.07h0c1.14,0,2.06,.92,2.06,2.06h0Z" style="fill:#fafafa;"/><path d="M16.27,66.77c0,1.14-.93,2.07-2.07,2.07-1.14,0-2.07-.93-2.07-2.07s.93-2.07,2.07-2.07h0c1.14,0,2.06,.92,2.06,2.06h0Z" style="fill:#fafafa;"/><path d="M59.44,86.21c0,1.14-.92,2.06-2.06,2.06s-2.06-.92-2.06-2.06,.92-2.06,2.06-2.06h0c1.14,0,2.05,.92,2.06,2.06Z" style="fill:#fafafa;"/><path d="M28.18,90.71c0,1.14-.92,2.07-2.06,2.08s-2.07-.92-2.08-2.06,.92-2.07,2.06-2.08c0,0,.01,0,.02,0,1.14,0,2.05,.92,2.06,2.06Z" style="fill:#fafafa;"/><path d="M106.84,92.12c0,1.14-.93,2.06-2.07,2.05s-2.06-.93-2.05-2.07c0-1.13,.93-2.05,2.06-2.05,1.14,0,2.06,.92,2.06,2.06h0Z" style="fill:#fafafa;"/><path d="M91.94,132.52c0,1.14-.93,2.07-2.07,2.07-1.14,0-2.07-.93-2.07-2.07s.93-2.07,2.07-2.07h0c1.14,0,2.06,.92,2.06,2.06h0Z" style="fill:#fafafa;"/><path d="M109.84,71.12c0,1.14-.92,2.06-2.06,2.06s-2.06-.92-2.06-2.06,.92-2.06,2.06-2.06h0c1.14,0,2.06,.92,2.06,2.06Z" style="fill:#fafafa;"/><path d="M109.7,29.42c0,1.14-.92,2.07-2.06,2.08-1.14,0-2.07-.92-2.08-2.06,0-1.14,.92-2.07,2.06-2.08,0,0,.01,0,.02,0,1.14,0,2.05,.92,2.06,2.06Z" style="fill:#f0f0f0;"/><path d="M147.41,57.03c0,1.14-.93,2.07-2.07,2.07-1.14,0-2.07-.93-2.07-2.07,0-1.14,.93-2.07,2.07-2.07h0c1.14,0,2.06,.92,2.06,2.06h0Z" style="fill:#f0f0f0;"/><path d="M153.03,87.45c0,1.14-.93,2.07-2.07,2.07-1.14,0-2.07-.93-2.07-2.07,0-1.14,.93-2.07,2.07-2.07h0c1.14,0,2.06,.92,2.06,2.06h0Z" style="fill:#f0f0f0;"/><path d="M84.86,7.4c0,1.14-.93,2.07-2.07,2.07s-2.07-.93-2.07-2.07,.93-2.07,2.07-2.07c1.14,0,2.07,.93,2.07,2.07h0Z" style="fill:#f0f0f0;"/><path d="M86.33,38.62c0,1.14-.92,2.06-2.06,2.06-1.14,0-2.06-.92-2.06-2.06s.92-2.06,2.06-2.06h0c1.14,0,2.05,.92,2.06,2.06Z" style="fill:#fafafa;"/><circle cx="86.99" cy="103.55" r="2.06" style="fill:#fafafa;"/><path d="M131.2,112.41c0,1.14-.92,2.06-2.06,2.06s-2.06-.92-2.06-2.06,.92-2.06,2.06-2.06h0c1.14,0,2.06,.92,2.06,2.06Z" style="fill:#fafafa;"/><path d="M33.3,110.21c-.01,1.14-.95,2.06-2.09,2.05-1.14-.01-2.06-.95-2.05-2.09,.01-1.14,.93-2.05,2.07-2.05,1.14,0,2.07,.93,2.07,2.07v.02Z" style="fill:#fafafa;"/><path d="M67.57,125.12c0,1.14-.92,2.07-2.06,2.08-1.14,0-2.07-.92-2.08-2.06s.92-2.07,2.06-2.08h0c1.14,0,2.06,.92,2.07,2.06Z" style="fill:#fafafa;"/><path d="M123.36,131.97c0,1.14-.93,2.07-2.07,2.07s-2.07-.93-2.07-2.07c0-1.14,.93-2.07,2.07-2.07s2.07,.93,2.07,2.07h0Z" style="fill:#fafafa;"/></g></g></g></g></svg>