<?xml version="1.0" encoding="UTF-8"?><svg id="a" xmlns="http://www.w3.org/2000/svg" viewBox="0 0 225.86 251.1"><g id="b"><path d="M12.92,126.41h-.07c-.54-.04-.96-.46-1-1l-3.56-46.2,2.15-.17,3,38.89L28.84,47.26c.1-.43,.45-.76,.88-.83,.44-.08,.87,.12,1.1,.5l28.19,46.64L77.77,7.82c.1-.45,.48-.79,.94-.84,.46-.05,.9,.2,1.09,.62l27.48,59.37L125.07,13.97l2,.69-18.66,55.57c-.14,.43-.54,.73-1,.73-.43,0-.82-.23-1-.62L79.14,11.42l-18.61,85.24c-.12,.59-.68,.97-1.27,.85-.31-.06-.58-.25-.73-.53L30.41,50.37,14.03,125.57c-.12,.51-.58,.87-1.11,.84Z" style="fill:#ba68c8;"/><g style="opacity:.2;"><path d="M12.92,126.41h-.07c-.54-.04-.96-.46-1-1l-3.56-46.2,2.15-.17,3,38.89L28.84,47.26c.1-.43,.45-.76,.88-.83,.44-.08,.87,.12,1.1,.5l28.19,46.64L77.77,7.82c.1-.45,.48-.79,.94-.84,.46-.05,.9,.2,1.09,.62l27.48,59.37L125.07,13.97l2,.69-18.66,55.57c-.14,.43-.54,.73-1,.73-.43,0-.82-.23-1-.62L79.14,11.42l-18.61,85.24c-.12,.59-.68,.97-1.27,.85-.31-.06-.58-.25-.73-.53L30.41,50.37,14.03,125.57c-.12,.51-.58,.87-1.11,.84Z"/></g><circle cx="78.82" cy="9.53" r="5.05" style="fill:#ba68c8;"/><circle cx="78.81" cy="9.52" r="9.36" style="fill:#ba68c8; isolation:isolate; opacity:.3;"/><path d="M181.53,106.18h-.12c-.23-.05-.4-.24-.42-.47l-6.58-62.05-21.9,50.91c-.09,.23-.34,.36-.58,.32-.24-.04-.43-.24-.45-.49l-5.81-66.42,1.07-.09,5.67,64.29,21.88-50.8c.09-.23,.33-.36,.57-.32,.24,.03,.43,.23,.46,.47l6.61,62.38,22-39.13,.94,.53-22.83,40.6c-.1,.18-.3,.29-.51,.27Z" style="fill:#ba68c8;"/><path d="M148.53,27.94c0,1.29-1.04,2.33-2.33,2.33s-2.33-1.04-2.33-2.33,1.04-2.33,2.33-2.33c1.28,0,2.32,1.03,2.33,2.31,0,0,0,.01,0,.02Z" style="fill:#ba68c8;"/><path d="M148.53,27.94c0,1.29-1.04,2.33-2.33,2.33s-2.33-1.04-2.33-2.33,1.04-2.33,2.33-2.33c1.28,0,2.32,1.03,2.33,2.31,0,0,0,.01,0,.02Z" style="isolation:isolate; opacity:.2;"/><path d="M176.73,42.41c0,1.28-1.05,2.32-2.33,2.31-1.28,0-2.32-1.05-2.31-2.33,0-1.28,1.04-2.31,2.32-2.31,1.28,0,2.32,1.04,2.32,2.32h0Z" style="fill:#ba68c8;"/><path d="M176.73,42.41c0,1.28-1.05,2.32-2.33,2.31-1.28,0-2.32-1.05-2.31-2.33,0-1.28,1.04-2.31,2.32-2.31,1.28,0,2.32,1.04,2.32,2.32h0Z" style="isolation:isolate; opacity:.2;"/><path d="M207.15,65.31c0,1.28-1.05,2.32-2.33,2.31s-2.32-1.05-2.31-2.33c0-1.28,1.04-2.31,2.32-2.31,1.28,0,2.32,1.04,2.32,2.32h0Z" style="fill:#ba68c8;"/><path d="M207.15,65.31c0,1.28-1.05,2.32-2.33,2.31s-2.32-1.05-2.31-2.33c0-1.28,1.04-2.31,2.32-2.31,1.28,0,2.32,1.04,2.32,2.32h0Z" style="isolation:isolate; opacity:.2;"/><path d="M197.09,128.93h-.11c-.54-.04-.96-.46-1-1l-6.92-72.72-15.18,43.65c-.2,.56-.81,.86-1.38,.66-.38-.13-.66-.47-.71-.87l-9.14-67.09-22.72,56.91c-.23,.55-.86,.81-1.41,.58-.36-.15-.61-.48-.66-.87l-5.71-56,2.15-.22,5.26,51.6,22.61-56.64c.19-.45,.65-.72,1.13-.67,.49,.06,.87,.44,.93,.93l9.09,66.7,15.37-44c.16-.48,.64-.77,1.14-.71,.52,.06,.92,.48,.95,1l6.89,72.41,14.55-45.26,2.05,.66-16.15,50.24c-.15,.43-.57,.72-1.03,.71Z" style="fill:#ba68c8;"/><g style="opacity:.2;"><path d="M197.09,128.93h-.11c-.54-.04-.96-.46-1-1l-6.92-72.72-15.18,43.65c-.2,.56-.81,.86-1.38,.66-.38-.13-.66-.47-.71-.87l-9.14-67.09-22.72,56.91c-.23,.55-.86,.81-1.41,.58-.36-.15-.61-.48-.66-.87l-5.71-56,2.15-.22,5.26,51.6,22.61-56.64c.19-.45,.65-.72,1.13-.67,.49,.06,.87,.44,.93,.93l9.09,66.7,15.37-44c.16-.48,.64-.77,1.14-.71,.52,.06,.92,.48,.95,1l6.89,72.41,14.55-45.26,2.05,.66-16.15,50.24c-.15,.43-.57,.72-1.03,.71Z"/></g><circle cx="162.96" cy="27.94" r="9.05" style="fill:#ba68c8; isolation:isolate; opacity:.3;"/><circle cx="162.96" cy="27.94" r="5.05" style="fill:#ba68c8;"/><path d="M29.89,102.13c-.21,0-.4-.13-.49-.32l-14.54-32,1-.45,13.93,30.62L48.79,32.79c.08-.29,.38-.45,.67-.37,.09,.03,.17,.08,.24,.15l33.42,36.2,21.42-50.47c.11-.28,.43-.41,.7-.3,.13,.05,.24,.16,.3,.3l18.78,38.39-1,.47-18.27-37.33-21.29,50.16c-.07,.17-.22,.29-.4,.32-.18,.03-.36-.03-.49-.16L49.53,34.06,30.41,101.73c-.06,.22-.25,.38-.47,.4h-.05Z" style="fill:#ba68c8;"/><path d="M17.8,69.4c0,1.28-1.04,2.32-2.32,2.32s-2.32-1.04-2.32-2.32c0-1.28,1.04-2.32,2.32-2.32s2.32,1.04,2.32,2.32h0Z" style="fill:#ba68c8;"/><path d="M15.48,73.88c-2.47,0-4.48-2.01-4.48-4.48s2.01-4.48,4.48-4.48c2.47,0,4.48,2.01,4.48,4.48h0c0,2.47-2.01,4.48-4.48,4.48Z" style="fill:#ba68c8; isolation:isolate; opacity:.2;"/><path d="M17.8,69.4c0,1.28-1.04,2.32-2.32,2.32s-2.32-1.04-2.32-2.32c0-1.28,1.04-2.32,2.32-2.32s2.32,1.04,2.32,2.32h0Z" style="isolation:isolate; opacity:.2;"/><path d="M32.21,101.05c0,1.29-1.03,2.33-2.32,2.34s-2.33-1.03-2.34-2.32c0-1.29,1.03-2.33,2.32-2.34,0,0,.01,0,.02,0,1.28,0,2.32,1.04,2.32,2.32h0Z" style="fill:#ba68c8;"/><path d="M29.89,105.53c-2.47,0-4.48-2-4.49-4.47,0-2.47,2-4.48,4.47-4.49s4.48,2,4.49,4.47h0c0,2.48-2,4.48-4.47,4.49Z" style="fill:#ba68c8; isolation:isolate; opacity:.2;"/><path d="M32.21,101.05c0,1.29-1.03,2.33-2.32,2.34s-2.33-1.03-2.34-2.32c0-1.29,1.03-2.33,2.32-2.34,0,0,.01,0,.02,0,1.28,0,2.32,1.04,2.32,2.32h0Z" style="isolation:isolate; opacity:.2;"/><circle cx="49.01" cy="33.38" r="2.32" style="fill:#ba68c8;"/><path d="M49.01,37.85c-2.47,0-4.48-2.01-4.48-4.48,0-2.47,2.01-4.48,4.48-4.48,2.47,0,4.48,2.01,4.48,4.48h0c0,2.48-2,4.48-4.47,4.48h-.01Z" style="fill:#ba68c8; isolation:isolate; opacity:.2;"/><circle cx="49.01" cy="33.38" r="2.32" style="isolation:isolate; opacity:.2;"/><path d="M107.33,18.66c0,1.28-1.04,2.32-2.32,2.32s-2.32-1.04-2.32-2.32,1.04-2.32,2.32-2.32,2.32,1.04,2.32,2.32h0Z" style="fill:#ba68c8;"/><path d="M105.01,23.09c-2.47,0-4.48-2-4.49-4.47s2-4.48,4.47-4.49c2.47,0,4.48,2,4.49,4.47h0c0,2.48-2,4.48-4.47,4.49Z" style="fill:#ba68c8; isolation:isolate; opacity:.2;"/><path d="M107.33,18.66c0,1.28-1.04,2.32-2.32,2.32s-2.32-1.04-2.32-2.32,1.04-2.32,2.32-2.32,2.32,1.04,2.32,2.32h0Z" style="isolation:isolate; opacity:.2;"/><g id="c"><g id="d"><g id="e"><path d="M127.21,203.23c.11,8.28-6.51,15.09-14.79,15.21s-15.09-6.51-15.21-14.79c-.11-8.25,6.45-15.04,14.7-15.2,8.28-.17,15.13,6.41,15.3,14.7v.09Z" style="fill:#37474f;"/><path d="M93.97,204.81c-10.07-5.59-10.23-14.92-.32-20.87,11.27-5.92,24.69-6.11,36.13-.53,10,5.61,10.19,14.95,.31,20.83-11.26,5.94-24.68,6.16-36.12,.57Z" style="fill:#455a64;"/><path d="M93.32,199.41c-10.37-5.8-10.54-15.41-.36-21.52,11.62-6.1,25.45-6.31,37.26-.59,10.37,5.8,10.54,15.41,.3,21.49-11.58,6.16-25.42,6.39-37.2,.62Z" style="fill:#37474f;"/><path d="M92.68,193.89c-10.65-6-10.82-15.85-.24-21.9,11.93-6.27,26.13-6.49,38.25-.59,10.71,5.94,10.89,15.87,.4,22.16-12.02,6.22-26.28,6.34-38.41,.33Z" style="fill:#455a64;"/><path d="M91.96,188.02c-11-6.11-11.13-16.34-.32-22.8,12.32-6.51,27.01-6.76,39.54-.67,11,6.16,11.19,16.36,.34,22.85-12.34,6.49-27.03,6.72-39.56,.62Z" style="fill:#37474f;"/><path d="M91.41,182.04c-11.37-6.5-11.44-16.7-.37-23.33,12.59-6.65,27.6-6.88,40.39-.61,11.25,6.22,11.41,16.65,.34,23.28-12.58,6.65-27.57,6.89-40.36,.66Z" style="fill:#455a64;"/><path d="M108.83,6.09c-39.53,.53-71.15,33-70.62,72.53v.37c.89,56.94,47.93,65.68,48.41,88.58,.47,4.43,3.31,8.26,7.41,10,11.08,5.42,24.08,5.23,35-.51,3.99-1.89,6.66-5.78,7-10.18h0c-.42-22.99,46.38-33.22,45.5-90.17-.52-39.52-32.98-71.14-72.51-70.62h-.19Z" style="fill:#ba68c8;"/><g style="opacity:.6;"><path d="M108.83,6.09c-39.53,.53-71.15,33-70.62,72.53v.37c.89,56.94,47.93,65.68,48.41,88.58,.47,4.43,3.31,8.26,7.41,10,11.08,5.42,24.08,5.23,35-.51,3.99-1.89,6.66-5.78,7-10.18h0c-.42-22.99,46.38-33.22,45.5-90.17-.52-39.52-32.98-71.14-72.51-70.62h-.19Z" style="fill:#fff;"/></g><path d="M98.41,174.53c-7.14-4.16-7.48-10.84-.47-15.1,8.22-4.31,18-4.46,26.34-.39,7.14,4.16,7.43,10.86,.23,15.19-8.16,4.23-17.84,4.34-26.1,.3Z" style="fill:#ba68c8;"/><path d="M120.94,164.8c-1.31,0-2.39-1.01-2.46-2.32-.14-13.79,1.34-27.56,4.43-41,.86-3.9,1.99-7.72,3.39-11.46-2.2-.77-4.32-1.77-6.3-3-3.63-2.15-6.91-4.85-9.72-8-2.71,3.16-5.87,5.9-9.37,8.15-1.95,1.24-4.03,2.29-6.19,3.11,1.5,3.71,2.76,7.51,3.77,11.38,3.53,13.36,5.43,27.1,5.67,40.92-.1,1.34-1.27,2.35-2.62,2.25-1.23-.09-2.19-1.08-2.25-2.31-.3-13.39-2.16-26.69-5.54-39.65-.97-3.85-2.24-7.61-3.79-11.26-4.89,1.04-9.99-.37-13.64-3.79-2.79-2.59-3.3-6.82-1.21-10,1.42-2.21,4.02-3.35,6.61-2.89,5.08,1.88,9.08,5.9,10.93,11,1.96-.72,3.84-1.67,5.59-2.81,3.41-2.17,6.45-4.87,9-8-3.09-3.82-4.46-8.75-3.79-13.62,1.06-3.62,4.87-5.7,8.49-4.63,2.16,.63,3.87,2.29,4.57,4.42,.86,4.84-.35,9.82-3.32,13.73,2.65,3.02,5.76,5.6,9.22,7.64,1.8,1.07,3.7,1.93,5.69,2.58,1.74-5.12,5.61-9.23,10.61-11.28,2.59-.49,5.22,.65,6.64,2.88,2.21,3.1,1.83,7.34-.88,10-3.54,3.53-8.58,5.11-13.51,4.24-1.43,3.7-2.59,7.5-3.47,11.37-2.96,13.07-4.38,26.43-4.23,39.83,.04,1.35-1.01,2.47-2.36,2.52h.04Zm-40.43-65.06c-.58,.03-1.09,.38-1.34,.91-1.18,1.62,.23,3.38,.69,3.85,2.12,1.92,4.99,2.81,7.83,2.41-1.3-3.16-3.73-5.73-6.81-7.21l-.37,.04Zm52.72,6.67c2.86,.25,5.69-.75,7.77-2.74,.41-.5,1.8-2.26,.61-3.87-.34-.64-1.05-.98-1.76-.85-1.64,.32-4.13,2.62-6.62,7.46Zm-23.1-24.75c-.89-.15-1.74,.45-1.89,1.34h0c-.3,2.8,.41,5.62,2,7.94,1.5-2.38,2.11-5.21,1.73-8-.15-.89-1-1.49-1.89-1.34h0l.05,.06Z" style="fill:#fff;"/></g></g></g><g style="opacity:.3;"><circle cx="129.56" cy="49.39" r="27.54" style="fill:#fff;"/><circle cx="154.08" cy="94.08" r="13.5" style="fill:#fff;"/></g><path d="M98.27,191.73l-19.71-60.51-38.42,23.53c-.27,.16-.6,.2-.9,.1-.3-.1-.54-.33-.66-.62L9.41,81.55l2-.8,28.72,71.5,38.47-23.59c.28-.18,.63-.21,.94-.1,.31,.12,.55,.37,.65,.68l20.13,61.82-2.05,.67Z" style="fill:#ba68c8;"/><g style="opacity:.1;"><path d="M98.27,191.73l-19.71-60.51-38.42,23.53c-.27,.16-.6,.2-.9,.1-.3-.1-.54-.33-.66-.62L9.41,81.55l2-.8,28.72,71.5,38.47-23.59c.28-.18,.63-.21,.94-.1,.31,.12,.55,.37,.65,.68l20.13,61.82-2.05,.67Z"/></g><path d="M120.47,197.93l-2.12-.37,10.85-62.19c.07-.39,.34-.71,.71-.84,.37-.13,.78-.04,1.07,.22l36.43,32.82,9.33-48c.11-.59,.68-.97,1.27-.85,.2,.04,.38,.13,.53,.27l27.27,25.92,9.71-49.18,2.11,.42-10.09,51.09c-.07,.39-.35,.71-.73,.82-.37,.12-.78,.03-1.07-.24l-27.26-25.91-9.31,47.94c-.07,.38-.35,.7-.72,.82-.37,.13-.77,.04-1.06-.22l-36.4-32.79-10.52,60.27Z" style="fill:#ba68c8;"/><g style="opacity:.1;"><path d="M120.47,197.93l-2.12-.37,10.85-62.19c.07-.39,.34-.71,.71-.84,.37-.13,.78-.04,1.07,.22l36.43,32.82,9.33-48c.11-.59,.68-.97,1.27-.85,.2,.04,.38,.13,.53,.27l27.27,25.92,9.71-49.18,2.11,.42-10.09,51.09c-.07,.39-.35,.71-.73,.82-.37,.12-.78,.03-1.07-.24l-27.26-25.91-9.31,47.94c-.07,.38-.35,.7-.72,.82-.37,.13-.77,.04-1.06-.22l-36.4-32.79-10.52,60.27Z"/></g><circle cx="9.36" cy="79.14" r="5.05" style="fill:#ba68c8;"/><circle cx="12.77" cy="125.34" r="5.05" style="fill:#ba68c8;"/><circle cx="29.89" cy="48.97" r="5.05" style="fill:#ba68c8;"/><circle cx="189.5" cy="50.8" r="5.05" transform="translate(109 229.72) rotate(-80.78)" style="fill:#ba68c8;"/><circle cx="213.04" cy="78.18" r="5.05" style="fill:#ba68c8;"/><circle cx="39.58" cy="153.83" r="5.05" style="fill:#ba68c8;"/><circle cx="79.79" cy="130.39" r="5.05" style="fill:#ba68c8;"/><circle cx="99.29" cy="191.61" r="5.05" style="fill:#ba68c8;"/><circle cx="119.41" cy="197.74" r="5.05" style="fill:#ba68c8;"/><path d="M135.6,136.27c0,2.79-2.26,5.06-5.05,5.07s-5.06-2.26-5.07-5.05,2.26-5.06,5.05-5.07h0c2.79,0,5.05,2.26,5.06,5.05Z" style="fill:#ba68c8;"/><circle cx="167.52" cy="169.51" r="5.05" style="fill:#ba68c8;"/><circle cx="177.71" cy="121.65" r="5.05" style="fill:#ba68c8;"/><circle cx="206.79" cy="146.83" r="5.05" style="fill:#ba68c8;"/><circle cx="9.36" cy="79.15" r="9.36" style="fill:#ba68c8; isolation:isolate; opacity:.3;"/><circle cx="12.77" cy="125.33" r="9.36" transform="translate(-112.14 108.97) rotate(-76.72)" style="fill:#ba68c8; isolation:isolate; opacity:.3;"/><path d="M29.89,58.33c-5.17,0-9.36-4.19-9.36-9.36s4.19-9.36,9.36-9.36,9.36,4.19,9.36,9.36c0,5.17-4.19,9.35-9.36,9.36Z" style="fill:#ba68c8; isolation:isolate; opacity:.3;"/><path d="M189.5,60.17c-5.17,0-9.37-4.19-9.38-9.36,0-5.17,4.19-9.37,9.36-9.38,5.17,0,9.37,4.19,9.38,9.36h0c0,5.18-4.19,9.37-9.36,9.38Z" style="fill:#ba68c8; isolation:isolate; opacity:.3;"/><circle cx="213.04" cy="78.2" r="9.36" transform="translate(88.16 267.69) rotate(-76.77)" style="fill:#ba68c8; isolation:isolate; opacity:.3;"/><circle cx="39.58" cy="153.85" r="9.36" transform="translate(-114.71 191.69) rotate(-89.35)" style="fill:#ba68c8; isolation:isolate; opacity:.3;"/><circle cx="78.12" cy="130.36" r="9.32" style="fill:#ba68c8; isolation:isolate; opacity:.3;"/><path d="M99.29,200.97c-5.17,0-9.37-4.2-9.37-9.37s4.2-9.37,9.37-9.37,9.37,4.2,9.37,9.37h0c0,5.18-4.2,9.37-9.37,9.37Z" style="fill:#ba68c8; isolation:isolate; opacity:.3;"/><circle cx="119.42" cy="197.76" r="9.36" transform="translate(-100.56 268.33) rotate(-76.66)" style="fill:#ba68c8; isolation:isolate; opacity:.3;"/><circle cx="130.54" cy="136.27" r="9.36" style="fill:#ba68c8; isolation:isolate; opacity:.3;"/><circle cx="167.52" cy="169.51" r="9.36" style="fill:#ba68c8; isolation:isolate; opacity:.3;"/><circle cx="177.69" cy="121.63" r="9.36" style="fill:#ba68c8; isolation:isolate; opacity:.3;"/><circle cx="206.79" cy="146.84" r="9.36" style="fill:#ba68c8; isolation:isolate; opacity:.3;"/><path d="M216.48,105.15c-5.17,0-9.36-4.19-9.36-9.36s4.19-9.36,9.36-9.36c5.17,0,9.36,4.19,9.36,9.36h0c0,5.17-4.19,9.35-9.36,9.36Z" style="fill:#ba68c8; isolation:isolate; opacity:.3;"/><circle cx="216.48" cy="95.79" r="5.05" style="fill:#ba68c8;"/><path d="M72.3,184.45h-.08c-.23-.04-.41-.22-.45-.45l-8.62-58.07-14.38,6.18c-.15,.06-.31,.06-.46,0-.15-.07-.25-.21-.28-.37l-6.31-31.14-22.14,30.56c-.17,.24-.51,.29-.75,.12-.24-.18-.29-.52-.12-.76l22.86-31.57c.13-.17,.34-.25,.55-.21,.21,.04,.37,.21,.41,.42l6.42,31.7,14.46-6.2c.15-.08,.33-.08,.48,0,.14,.08,.24,.23,.27,.39l8.47,57.11,19-36.51c.15-.26,.48-.35,.74-.2,.09,.05,.16,.12,.2,.2l19.31,31.85c.16,.25,.08,.57-.17,.73h-.01c-.26,.16-.58,.08-.74-.17l-18.81-31-19.37,37.1c-.09,.18-.28,.29-.48,.29Z" style="fill:#ba68c8;"/><path d="M18.95,135.71c-2.47,.01-4.49-1.99-4.5-4.46-.01-2.47,1.99-4.49,4.46-4.5s4.49,1.99,4.5,4.46v.02c0,2.46-2,4.46-4.46,4.48Z" style="fill:#ba68c8; isolation:isolate; opacity:.3;"/><circle cx="18.95" cy="131.23" r="2.32" style="fill:#ba68c8;"/><path d="M18.95,135.71c-2.47,.01-4.49-1.99-4.5-4.46-.01-2.47,1.99-4.49,4.46-4.5s4.49,1.99,4.5,4.46v.02c0,2.46-2,4.46-4.46,4.48Z" style="fill:#ba68c8; isolation:isolate; opacity:.3;"/><circle cx="18.95" cy="131.23" r="2.32" style="isolation:isolate; opacity:.2;"/><path d="M42,103.74c-2.47,0-4.48-2.01-4.48-4.48,0-2.47,2.01-4.48,4.48-4.48,2.47,0,4.48,2.01,4.48,4.48h0c0,2.48-2,4.48-4.47,4.48h-.01Z" style="fill:#ba68c8; isolation:isolate; opacity:.3;"/><circle cx="42" cy="99.27" r="2.32" style="fill:#ba68c8;"/><path d="M42,103.74c-2.47,0-4.48-2.01-4.48-4.48,0-2.47,2.01-4.48,4.48-4.48,2.47,0,4.48,2.01,4.48,4.48h0c0,2.48-2,4.48-4.47,4.48h-.01Z" style="fill:#ba68c8; isolation:isolate; opacity:.3;"/><circle cx="42" cy="99.27" r="2.32" style="isolation:isolate; opacity:.2;"/><path d="M48.67,135.87c-2.47,0-4.48-2-4.49-4.47,0-2.47,2-4.48,4.47-4.49,2.47,0,4.48,2,4.49,4.47,0,0,0,.01,0,.02,0,2.47-2,4.46-4.47,4.47Z" style="fill:#ba68c8; isolation:isolate; opacity:.3;"/><path d="M50.99,131.4c0,1.29-1.03,2.33-2.32,2.34s-2.33-1.03-2.34-2.32c0-1.29,1.03-2.33,2.32-2.34,0,0,.01,0,.02,0,1.28,0,2.32,1.04,2.32,2.32h0Z" style="fill:#ba68c8;"/><path d="M48.67,135.87c-2.47,0-4.48-2-4.49-4.47,0-2.47,2-4.48,4.47-4.49,2.47,0,4.48,2,4.49,4.47,0,0,0,.01,0,.02,0,2.47-2,4.46-4.47,4.47Z" style="fill:#ba68c8; isolation:isolate; opacity:.3;"/><path d="M50.99,131.4c0,1.29-1.03,2.33-2.32,2.34s-2.33-1.03-2.34-2.32c0-1.29,1.03-2.33,2.32-2.34,0,0,.01,0,.02,0,1.28,0,2.32,1.04,2.32,2.32h0Z" style="isolation:isolate; opacity:.2;"/><path d="M63.51,129.81c-2.47,0-4.48-2.01-4.48-4.48,0-2.47,2.01-4.48,4.48-4.48,2.47,0,4.48,2.01,4.48,4.48h0c0,2.48-2,4.48-4.47,4.48h-.01Z" style="fill:#ba68c8; isolation:isolate; opacity:.3;"/><path d="M65.84,125.34c0,1.29-1.04,2.33-2.33,2.33s-2.33-1.04-2.33-2.33c0-1.29,1.04-2.33,2.33-2.33,1.28,0,2.32,1.03,2.33,2.31,0,0,0,.01,0,.02Z" style="fill:#ba68c8;"/><path d="M63.51,129.81c-2.47,0-4.48-2.01-4.48-4.48,0-2.47,2.01-4.48,4.48-4.48,2.47,0,4.48,2.01,4.48,4.48h0c0,2.48-2,4.48-4.47,4.48h-.01Z" style="fill:#ba68c8; isolation:isolate; opacity:.3;"/><path d="M65.84,125.34c0,1.29-1.04,2.33-2.33,2.33s-2.33-1.04-2.33-2.33c0-1.29,1.04-2.33,2.33-2.33,1.28,0,2.32,1.03,2.33,2.31,0,0,0,.01,0,.02Z" style="isolation:isolate; opacity:.2;"/><path d="M72.41,187.66c-2.47,0-4.48-2-4.49-4.47,0-2.47,2-4.48,4.47-4.49,2.47,0,4.48,2,4.49,4.47h0c0,2.48-2,4.48-4.47,4.49Z" style="fill:#ba68c8; isolation:isolate; opacity:.3;"/><path d="M74.74,183.21c0,1.29-1.03,2.33-2.32,2.34-1.29,0-2.33-1.03-2.34-2.32,0-1.29,1.03-2.33,2.32-2.34,0,0,.01,0,.02,0,1.28,0,2.32,1.04,2.32,2.32h0Z" style="fill:#ba68c8;"/><path d="M72.41,187.66c-2.47,0-4.48-2-4.49-4.47,0-2.47,2-4.48,4.47-4.49,2.47,0,4.48,2,4.49,4.47h0c0,2.48-2,4.48-4.47,4.49Z" style="fill:#ba68c8; isolation:isolate; opacity:.3;"/><path d="M74.74,183.21c0,1.29-1.03,2.33-2.32,2.34-1.29,0-2.33-1.03-2.34-2.32,0-1.29,1.03-2.33,2.32-2.34,0,0,.01,0,.02,0,1.28,0,2.32,1.04,2.32,2.32h0Z" style="isolation:isolate; opacity:.2;"/><path d="M92.07,151.51c-2.47,0-4.48-2-4.49-4.47,0-2.47,2-4.48,4.47-4.49,2.47,0,4.48,2,4.49,4.47h0c0,2.48-2,4.48-4.47,4.49Z" style="fill:#ba68c8; isolation:isolate; opacity:.3;"/><circle cx="92.07" cy="147.03" r="2.32" style="fill:#ba68c8;"/><path d="M92.07,151.51c-2.47,0-4.48-2-4.49-4.47,0-2.47,2-4.48,4.47-4.49,2.47,0,4.48,2,4.49,4.47h0c0,2.48-2,4.48-4.47,4.49Z" style="fill:#ba68c8; isolation:isolate; opacity:.3;"/><circle cx="92.07" cy="147.03" r="2.32" style="isolation:isolate; opacity:.2;"/><path d="M111.62,182.71c-2.47,0-4.48-2.01-4.48-4.48s2.01-4.48,4.48-4.48,4.48,2.01,4.48,4.48h0c0,2.48-2.01,4.48-4.48,4.48Z" style="fill:#ba68c8; isolation:isolate; opacity:.3;"/><path d="M113.94,178.24c0,1.28-1.04,2.32-2.32,2.32-1.28,0-2.32-1.04-2.32-2.32s1.04-2.32,2.32-2.32,2.32,1.04,2.32,2.32h0Z" style="fill:#ba68c8;"/><path d="M111.62,182.71c-2.47,0-4.48-2.01-4.48-4.48s2.01-4.48,4.48-4.48,4.48,2.01,4.48,4.48h0c0,2.48-2.01,4.48-4.48,4.48Z" style="fill:#ba68c8; isolation:isolate; opacity:.3;"/><path d="M113.94,178.24c0,1.28-1.04,2.32-2.32,2.32-1.28,0-2.32-1.04-2.32-2.32s1.04-2.32,2.32-2.32,2.32,1.04,2.32,2.32h0Z" style="isolation:isolate; opacity:.2;"/><path d="M139.92,178.72c-.15,0-.29-.06-.39-.16l-25.22-26.3c-.21-.21-.21-.55,0-.76,.2-.21,.54-.21,.75-.01h.01l24.51,25.56,9.31-44.9c.04-.19,.17-.34,.36-.4,.18-.06,.39-.02,.53,.11l31.38,28.47,10-57c.03-.2,.18-.37,.38-.42,.2-.06,.41,0,.55,.15l26.65,29.38c.22,.2,.24,.54,.04,.76-.2,.22-.54,.24-.76,.04-.02-.02-.05-.05-.07-.07l-25.9-28.51-10,56.86c-.04,.19-.18,.35-.36,.42-.19,.06-.39,.02-.54-.11l-31.41-28.5-9.32,45c-.04,.2-.19,.36-.38,.41-.04,0-.08,0-.12-.02Z" style="fill:#ba68c8;"/><path d="M114.7,156.15c-2.47,0-4.48-2.01-4.48-4.48s2.01-4.48,4.48-4.48,4.48,2.01,4.48,4.48h0c0,2.48-2,4.48-4.47,4.48h-.01Z" style="fill:#ba68c8; isolation:isolate; opacity:.3;"/><path d="M117.02,151.66c0,1.28-1.05,2.32-2.33,2.31-1.28,0-2.32-1.05-2.31-2.33,0-1.28,1.04-2.31,2.32-2.31,1.28,0,2.32,1.04,2.32,2.32h0Z" style="fill:#ba68c8;"/><path d="M114.7,156.15c-2.47,0-4.48-2.01-4.48-4.48s2.01-4.48,4.48-4.48,4.48,2.01,4.48,4.48h0c0,2.48-2,4.48-4.47,4.48h-.01Z" style="fill:#ba68c8; isolation:isolate; opacity:.3;"/><path d="M117.02,151.66c0,1.28-1.05,2.32-2.33,2.31-1.28,0-2.32-1.05-2.31-2.33,0-1.28,1.04-2.31,2.32-2.31,1.28,0,2.32,1.04,2.32,2.32h0Z" style="isolation:isolate; opacity:.2;"/><path d="M139.92,182.66c-2.47,0-4.48-2.01-4.48-4.48s2.01-4.48,4.48-4.48,4.48,2.01,4.48,4.48h0c0,2.48-2,4.48-4.47,4.48h-.01Z" style="fill:#ba68c8; isolation:isolate; opacity:.3;"/><circle cx="139.92" cy="178.19" r="2.32" style="fill:#ba68c8;"/><path d="M139.92,182.66c-2.47,0-4.48-2.01-4.48-4.48s2.01-4.48,4.48-4.48,4.48,2.01,4.48,4.48h0c0,2.48-2,4.48-4.47,4.48h-.01Z" style="fill:#ba68c8; isolation:isolate; opacity:.3;"/><circle cx="139.92" cy="178.19" r="2.32" style="isolation:isolate; opacity:.2;"/><path d="M149.1,137.32c-2.47,0-4.48-2.01-4.48-4.48,0-2.47,2.01-4.48,4.48-4.48,2.47,0,4.48,2.01,4.48,4.48h0c0,2.47-2.01,4.48-4.48,4.48Z" style="fill:#ba68c8; isolation:isolate; opacity:.3;"/><circle cx="149.1" cy="132.84" r="2.32" style="fill:#ba68c8;"/><path d="M149.1,137.32c-2.47,0-4.48-2.01-4.48-4.48,0-2.47,2.01-4.48,4.48-4.48,2.47,0,4.48,2.01,4.48,4.48h0c0,2.47-2.01,4.48-4.48,4.48Z" style="fill:#ba68c8; isolation:isolate; opacity:.3;"/><circle cx="149.1" cy="132.84" r="2.32" style="isolation:isolate; opacity:.2;"/><path d="M181.72,165.78c-2.47,0-4.48-2.01-4.48-4.48s2.01-4.48,4.48-4.48,4.48,2.01,4.48,4.48h0c0,2.48-2.01,4.48-4.48,4.48Z" style="fill:#ba68c8; isolation:isolate; opacity:.3;"/><circle cx="181.72" cy="161.31" r="2.32" style="fill:#ba68c8;"/><path d="M181.72,165.78c-2.47,0-4.48-2.01-4.48-4.48s2.01-4.48,4.48-4.48,4.48,2.01,4.48,4.48h0c0,2.48-2.01,4.48-4.48,4.48Z" style="fill:#ba68c8; isolation:isolate; opacity:.3;"/><circle cx="181.72" cy="161.31" r="2.32" style="isolation:isolate; opacity:.2;"/><path d="M191.41,108.86c-2.47,0-4.48-2.01-4.48-4.48,0-2.47,2.01-4.48,4.48-4.48,2.47,0,4.48,2.01,4.48,4.48s-2.01,4.48-4.48,4.48h0Z" style="fill:#ba68c8; isolation:isolate; opacity:.3;"/><path d="M193.72,104.38c0,1.29-1.03,2.33-2.32,2.34-1.29,0-2.33-1.03-2.34-2.32,0-1.29,1.03-2.33,2.32-2.34,0,0,.02,0,.03,0,1.28,.01,2.3,1.04,2.31,2.32Z" style="fill:#ba68c8;"/><path d="M191.41,108.86c-2.47,0-4.48-2.01-4.48-4.48,0-2.47,2.01-4.48,4.48-4.48,2.47,0,4.48,2.01,4.48,4.48s-2.01,4.48-4.48,4.48h0Z" style="fill:#ba68c8; isolation:isolate; opacity:.3;"/><path d="M193.72,104.38c0,1.29-1.03,2.33-2.32,2.34-1.29,0-2.33-1.03-2.34-2.32,0-1.29,1.03-2.33,2.32-2.34,0,0,.02,0,.03,0,1.28,.01,2.3,1.04,2.31,2.32Z" style="isolation:isolate; opacity:.2;"/><path d="M218.8,137.32c-2.47,0-4.48-2.01-4.48-4.48s2.01-4.48,4.48-4.48c2.47,0,4.48,2.01,4.48,4.48s-2.01,4.48-4.48,4.48h0Z" style="fill:#ba68c8; isolation:isolate; opacity:.3;"/><circle cx="218.8" cy="132.84" r="2.32" style="fill:#ba68c8;"/><path d="M218.8,137.32c-2.47,0-4.48-2.01-4.48-4.48s2.01-4.48,4.48-4.48c2.47,0,4.48,2.01,4.48,4.48s-2.01,4.48-4.48,4.48h0Z" style="fill:#ba68c8; isolation:isolate; opacity:.3;"/><circle cx="218.8" cy="132.84" r="2.32" style="isolation:isolate; opacity:.2;"/><path d="M218.8,128.37c-1.03,0-2.03,.35-2.83,1l-4-4.41,3.93-19.88c.19,.01,.39,.01,.58,0,5.17,.01,9.37-4.16,9.39-9.33,.01-4.84-3.67-8.9-8.5-9.35,4.58-2.39,6.36-8.04,3.97-12.63-2.39-4.58-8.04-6.36-12.63-3.97-4.58,2.39-6.36,8.04-3.97,12.63,.97,1.86,2.54,3.34,4.45,4.2l-8.36,26-4.58-5-2.2-23.18,9.65-17.17c1.12,.62,2.53,.22,3.16-.9s.22-2.53-.9-3.16c-1.12-.62-2.53-.22-3.16,.9-.2,.35-.3,.75-.29,1.16,0,.45,.13,.89,.38,1.26l-9,16-2.16-22.72c5.04-1.22,8.13-6.29,6.91-11.32-1.22-5.04-6.29-8.13-11.32-6.91s-8.13,6.29-6.91,11.32c.66,2.73,2.51,5.02,5.04,6.24l-4.2,12c-.63-7.08-2.31-14.02-5-20.6l-.66-6.25c.72-.41,1.15-1.17,1.15-2-.03-1.28-1.09-2.3-2.37-2.27-1.15,.02-2.1,.88-2.25,2.02-1.3-2.28-2.73-4.48-4.28-6.6,4.09-2.82,5.13-8.42,2.31-12.52-2.82-4.09-8.42-5.13-12.52-2.31-.74,.51-1.39,1.12-1.95,1.82-13.08-10.9-29.64-16.76-46.67-16.51h-.17c-7.01,.09-13.97,1.21-20.66,3.33C88.13,4.1,83.9-.05,78.73,0c-5.17,.05-9.32,4.28-9.27,9.45,.02,2.65,1.17,5.16,3.15,6.92-7.34,4.47-13.82,10.23-19.12,17v-.11c.01-2.47-1.98-4.49-4.46-4.5-2.47-.01-4.49,1.98-4.5,4.46,0,1.87,1.15,3.55,2.9,4.21l-3.25,11.5c-1.83,4.19-3.25,8.54-4.25,13l-3.73-6.18c3.81-3.49,4.07-9.41,.58-13.22s-9.41-4.07-13.22-.58c-3.81,3.49-4.07,9.41-.58,13.22,.99,1.08,2.22,1.91,3.58,2.43l-5.15,23.96-3.75-8.24c2.16-1.18,2.95-3.89,1.77-6.05s-3.89-2.95-6.05-1.77c-1.43,.78-2.32,2.28-2.32,3.92,0,.18,.02,.36,.05,.54-.56-.11-1.13-.17-1.7-.17-5.17,.04-9.33,4.26-9.29,9.43,.04,4.98,3.96,9.06,8.93,9.28l2.13,27.65c-5.07,1.03-8.34,5.96-7.32,11.03,.86,4.27,4.56,7.37,8.91,7.5,.98,0,1.96-.16,2.89-.46,1.66,1.82,4.49,1.94,6.3,.27,1.82-1.66,1.94-4.49,.27-6.3-.1-.11-.2-.21-.31-.3l3.91-5.4,9.27,23.09c-4.54,2.47-6.22,8.15-3.75,12.69,2.47,4.54,8.15,6.22,12.69,3.75,3.01-1.64,4.89-4.79,4.89-8.22,0-1.36-.3-2.7-.88-3.93l17.1-10.47,5.87,39.55c-2.35,.77-3.63,3.29-2.86,5.64,.77,2.35,3.29,3.63,5.64,2.86,2.35-.77,3.63-3.29,2.86-5.64-.28-.86-.82-1.62-1.55-2.17l9.88-19c.33,.73,.61,1.48,.85,2.24-3.26,3.71-3.94,7.92-2,11.83-.44,2.2-.12,4.48,.93,6.46-.37,1.99-.08,4.04,.83,5.84-.35,1.98-.05,4.02,.88,5.81-.79,4.33,1.71,8.78,7.5,12,1.13,.55,2.28,1.04,3.46,1.47,1.49,8.15,9.3,13.55,17.45,12.06,6.36-1.16,11.26-6.27,12.16-12.67,1-.44,2.05-.9,3.05-1.43,5.68-3.39,8-7.91,7.1-12.21,.83-1.72,1.1-3.66,.77-5.54,.57-1.26,.87-2.62,.88-4,.35,.1,.72,.15,1.08,.15,2.47,0,4.46-2.02,4.46-4.48,0-1.91-1.22-3.6-3.03-4.22l4.71-22.74,14,12.61c-3.15,4.1-2.38,9.98,1.72,13.12,4.1,3.15,9.98,2.38,13.12-1.72,3.15-4.1,2.38-9.98-1.72-13.12-.69-.53-1.45-.96-2.25-1.28l1.37-7,5.64,5.12c-.48,.72-.73,1.56-.73,2.42-.01,2.47,1.99,4.49,4.46,4.5,2.47,.01,4.49-1.99,4.5-4.46,0-2.04-1.36-3.83-3.33-4.35l4.65-26.55,11.6,11c-2.96,4.24-1.92,10.07,2.32,13.03,4.24,2.96,10.07,1.92,13.03-2.32,2.96-4.24,1.92-10.07-2.32-13.03-.83-.58-1.76-1.02-2.73-1.31l2.28-11.55,3.51,3.87c-1.47,1.98-1.05,4.78,.93,6.25,1.98,1.47,4.78,1.05,6.25-.93,1.47-1.98,1.05-4.78-.93-6.25-.77-.57-1.71-.88-2.67-.88h.02Zm-6.65-40.87c-.42,.22-.81,.47-1.19,.75l.28-.88c.3,.05,.6,.1,.91,.13h0Zm-4.56,11.22c.97,2.88,3.27,5.12,6.18,6l-3.6,18.26-7.67-8.45,5.09-15.81Zm-7.18,15.18l-2.78,8.64-1.22-13.08,4,4.44Zm-7-13.5c-2.2-1.11-4.88-.23-5.99,1.97-1.11,2.2-.23,4.88,1.97,5.99,.28,.14,.57,.25,.86,.33l-3.21,18.32-1.05-1c.72-1.34,1.09-2.84,1.09-4.36,0-5.17-4.2-9.37-9.38-9.36-1.24,0-2.48,.25-3.62,.73,2.68-5.57,4.64-11.46,5.84-17.52l1.08,10.2c.02,.23,.19,.42,.42,.47h.11c.19,0,.37-.1,.47-.27l10.2-18.13,1.21,12.63ZM48.67,126.92c-.17,0-.34,.02-.51,.05l-3.18-15.73c2.74,6.04,6.24,11.69,10.43,16.83l-2.86,1.22c-.76-1.44-2.25-2.35-3.88-2.37Zm-18.78-21.39c2.47,0,4.48-1.99,4.48-4.46,0-1.76-1.02-3.36-2.62-4.08l6.58-23.3c-.09,1.63-.14,3.27-.12,4.93v.33c.07,5.5,.64,10.98,1.7,16.38-2.17,1.14-3.01,3.82-1.88,5.99,.24,.46,.56,.87,.94,1.22l-12.11,16.73-7.45-18.61,3.07-14.11,4.93,10.8c-2.04,1.4-2.57,4.18-1.17,6.23,.83,1.22,2.22,1.95,3.69,1.95h-.04Zm138.52,17.25c.44,3.55,2.86,6.54,6.24,7.71l-4,20.36-14.62-13.27c4.54-4.57,8.69-9.52,12.38-14.8Zm21.08-62.61h.07l2.45,25.74-10.13,18-1.29-12.25c.72-4.88,1.03-9.8,.94-14.73l5.93-17c.67,.16,1.35,.24,2.04,.24h-.01Zm-14.68-12.79c-.34-.73-.68-1.45-1-2.16l.22-.53c.14,0,.28,0,.42,0h.12l.24,2.69Zm-126.34-9.58c.18,.03,.36,.04,.54,.05,.51,0,1.01-.09,1.48-.27-1.33,1.94-2.55,3.94-3.65,6l1.63-5.78Zm-19.82,20.44c.41,.06,.83,.09,1.24,.09,1.6,0,3.17-.41,4.56-1.2l4.86,8c-.16,.87-.31,1.74-.43,2.62l-8.16,28.91c-.27-.06-.55-.09-.83-.09-.53,0-1.06,.11-1.56,.3l-5.48-12,5.8-26.63Zm-10.68,38.9l-4-9.88c2.92-1.66,4.72-4.76,4.72-8.12,.01-.3,.01-.59,0-.89l2.3,5.06-3.02,13.83Zm-4.69,18.86l-2.13-27.68c.29-.06,.58-.13,.87-.21l5.13,12.78-3.3,15.15-.57-.04Zm8.83,9.83v-.49c0-3.94-2.48-7.46-6.19-8.8l2.64-12.09,6.85,16.88-3.3,4.5Zm17.47,18.64c-.83,0-1.66,.11-2.46,.34l-9.79-24.36,12.52-17.29c.65,.38,1.4,.58,2.15,.58h.09c.22,.67,.44,1.32,.67,2l4.35,21.52c-2.33,.85-3.53,3.43-2.68,5.76s3.43,3.53,5.76,2.68c2.18-.8,3.39-3.12,2.8-5.37l3.17-1.36c2.59,3.13,5.28,6,7.95,8.62l-17.17,10.47c-1.77-2.26-4.49-3.59-7.36-3.59Zm34.61,34.64c-.56-.25-1.16-.38-1.77-.38h-.34l-5.8-39.1c7.6,7.33,14.68,13.22,18.13,19.77l-10.22,19.71Zm66.1-5.36h-.37c-.22,0-.43,.03-.65,.06,0-.1-.05-.21-.08-.32,1.53-3.84,.66-7.9-2.58-11.38,1.19-4.32,4-8.3,7.72-12.42l.8,.73-4.84,23.33Zm28.59-13.49c-.45-.07-.9-.11-1.36-.11-2.17,0-4.27,.75-5.94,2.13l-15-13.51,.4-1.95c2.58-2.68,5.43-5.46,8.36-8.46l15.13,13.72-1.59,8.18Zm12.92-3.42h-.08c-1.14,0-2.24,.44-3.06,1.23l-6.09-5.52,4.19-21.57h1c2.69,0,5.24-1.17,7-3.2l1.84,1.75-4.8,27.31Zm25.51-19.34h-.52c-2.3,0-4.52,.85-6.23,2.4l-12.59-12,3.34-19.05h.1c.99,0,1.94-.33,2.72-.94l1.91,20c.04,.54,.46,.96,1,1h.11c.46-.01,.86-.31,1-.75l4-12.44,7.79,8.59-2.63,13.19Z" style="fill:#fff; isolation:isolate; opacity:.2;"/></g></svg>