<?xml version="1.0" encoding="UTF-8"?><svg id="a" xmlns="http://www.w3.org/2000/svg" viewBox="0 0 452.73 223.79"><g id="b"><g id="c"><g id="d"><path d="M3.32,76.31v121.35c-.14,1.21,.36,2.4,1.33,3.13,.14,.09,.81,.49,1,.58,.8,.33,1.72,.24,2.44-.26l119.6-69.02c2.15-1.25,3.89-4.58,3.89-7.45V3.28l-.88-.5L3.32,76.31Z" style="fill:#593797;"/><path d="M4.21,198.18V76.82L131.58,3.28V124.66c0,2.87-1.74,6.2-3.89,7.45L8.09,201.11c-2.13,1.25-3.88-.07-3.88-2.93Z" style="fill:#fff; isolation:isolate; opacity:.8;"/></g><g id="e"><g id="f" style="opacity:.15;"><g style="opacity:.15;"><polygon points="42.38 138.12 51.09 133.09 51.09 146.5 42.38 151.52 42.38 138.12"/></g><g style="opacity:.15;"><polygon points="29.74 145.42 38.44 140.39 38.44 153.8 29.74 158.83 29.74 145.42"/></g><g style="opacity:.15;"><polygon points="17.09 152.72 25.8 147.69 25.8 161.1 17.09 166.13 17.09 152.72"/></g><g style="opacity:.15;"><polygon points="42.38 156.55 51.09 151.52 51.09 164.93 42.38 169.96 42.38 156.55"/></g><polygon points="28.9 163.87 39.21 160.21 38.13 172.68 27.82 176.34 28.9 163.87"/><polygon points="16.14 171.5 24.85 166.47 24.85 179.88 16.14 184.91 16.14 171.5"/></g><g id="g"><g id="h"><path d="M51.52,135.11l-9.03,5.18,.56,7.6c.07,.86,1.44,.59,2.12,.16,0,.66,.44,1.74,1.11,1.36l6-3.36-.76-10.94Z" style="fill:#455a64;"/><polygon points="51.52 133.39 42.47 138.61 42.47 140.29 51.52 135.06 51.52 133.39" style="fill:#37474f;"/><polygon points="45.02 147.42 45.79 149.45 43.31 148.35 45.02 147.42" style="fill:#37474f;"/></g><g id="i"><polygon points="38.87 142.36 29.82 147.59 30.62 158.48 39.63 153.35 38.87 142.36" style="fill:#593797;"/><polygon points="38.87 140.69 29.82 145.92 29.82 147.59 38.87 142.36 38.87 140.69" style="fill:#593797;"/><polygon points="38.87 140.69 29.82 145.92 29.82 147.59 38.87 142.36 38.87 140.69" style="isolation:isolate; opacity:.1;"/></g><g id="j"><polygon points="25.47 168.55 16.42 173.77 17.23 184.66 26.23 179.53 25.47 168.55" style="fill:#593797;"/><polygon points="25.47 166.87 16.42 172.1 16.42 173.77 25.47 168.55 25.47 166.87" style="fill:#593797;"/><polygon points="25.47 166.87 16.42 172.1 16.42 173.77 25.47 168.55 25.47 166.87" style="isolation:isolate; opacity:.1;"/></g><g id="k"><polygon points="39.42 162.31 29.61 165.93 28.56 176.79 38.3 173.27 39.42 162.31" style="fill:#593797;"/><polygon points="39.71 160.66 29.9 164.27 29.61 165.93 39.42 162.31 39.71 160.66" style="fill:#593797;"/><polygon points="39.71 160.66 29.9 164.27 29.61 165.93 39.42 162.31 39.71 160.66" style="isolation:isolate; opacity:.1;"/></g><g id="l"><polygon points="51.52 153.37 42.47 158.6 43.28 169.49 52.28 164.36 51.52 153.37" style="fill:#455a64;"/><polygon points="51.52 151.7 42.47 156.93 42.47 158.6 51.52 153.38 51.52 151.7" style="fill:#593797;"/><polygon points="51.52 151.7 42.47 156.93 42.47 158.6 51.52 153.38 51.52 151.7" style="fill:#37474f;"/></g><g id="m"><path d="M26.24,149.67l-9.06,5.22,.56,7.61c.07,.85,1.45,.58,2.12,.15,.01,.66,.45,1.74,1.12,1.37l6-3.37-.74-10.98Z" style="fill:#455a64;"/><polygon points="26.23 147.99 17.17 153.22 17.17 154.89 26.23 149.67 26.23 147.99" style="fill:#37474f;"/><polygon points="19.72 162.03 20.5 164.05 18.02 162.95 19.72 162.03" style="fill:#37474f;"/></g></g></g><g id="n"><polygon points="26.56 80.83 81.35 49.2 81.35 111.58 26.56 143.21 26.56 80.83" style="isolation:isolate; opacity:.15;"/><path d="M30.26,142.51l52.82-30.56c.43-.28,.7-.75,.73-1.26V52.02c-.03-.51-.3-.98-.73-1.26l-.25-.15c-.46-.23-1-.23-1.46,0l-52.82,30.56c-.43,.28-.7,.75-.73,1.26v58.67c.03,.51,.3,.98,.73,1.26l.25,.15c.46,.23,1,.23,1.46,0Z" style="fill:#f0f0f0;"/><path d="M28.03,81.7l1.72,1c-.14,.22-.21,.46-.22,.72v58.68c0,.4,.24,.59,.57,.5-.43,.15-.9,.12-1.3-.08l-.25-.14c-.43-.29-.69-.76-.72-1.27v-58.68c0-.26,.08-.51,.2-.73Z" style="fill:#e0e0e0;"/><path d="M83.82,52.02v58.67c-.03,.51-.3,.98-.73,1.26l-52.82,30.58c-.4,.23-.73,.04-.73-.42v-58.69c.03-.51,.3-.98,.73-1.26l52.82-30.56c.39-.23,.72-.04,.73,.42Z" style="fill:#fafafa;"/><path d="M80.49,109.85l-47.74,27.58v-7.91c3.46-1.83,5.68-5.38,5.79-9.29,.12-2.16,.23-12.16,.3-19.16,0-7.88,1.54-9.85,3-10.67s2.83,.62,3.46,3.59,2.19,6.83,3.79,6.18c2.41-.99,2.41-3.31,2.41-7.76,0-4.97-.29-10.38,3-12.2,2.22-1.25,3.41,.88,4.65,9,.87,5.73,2.8,11.86,5.27,10.44,1.58-.91,1.34-2.52,3.1-3.7,2.51-1.69,4.36,2.36,6.41,7.38s4.78,4.78,6.56,3.78v2.74Z" style="fill:#593797; isolation:isolate; opacity:.1;"/><path d="M32.47,129.14c3.33-1.73,5.45-5.14,5.54-8.89,.13-2.28,.24-12.98,.3-19.15,.08-8.14,1.71-10.17,3.29-11.08,.55-.34,1.22-.39,1.81-.12,1.07,.45,1.9,1.88,2.36,4,.6,2.8,1.75,5.31,2.67,5.8,.14,.07,.32,.07,.46,0,2.12-.87,2.12-2.89,2.12-7.31v-1.09c-.02-4.77-.04-9.71,3.26-11.53,.61-.42,1.4-.5,2.08-.2,1.42,.7,2.34,3.38,3.28,9.58,.82,5.4,2.31,9.47,3.7,10.14,.27,.14,.6,.12,.85-.05,.57-.37,1.02-.91,1.29-1.54,.39-.86,1-1.6,1.78-2.14,.57-.43,1.31-.57,2-.38,1.93,.62,3.39,3.85,5.09,8,.89,2.19,1.97,3.51,3.21,3.93,.9,.27,1.87,.13,2.66-.38l.48,.84c-1.02,.66-2.29,.83-3.45,.46-1.52-.48-2.8-2.02-3.8-4.48-1.19-2.92-2.83-6.91-4.47-7.41-.42-.12-.88-.02-1.22,.26-.64,.45-1.15,1.07-1.47,1.79-.35,.79-.92,1.46-1.65,1.92-.53,.33-1.2,.36-1.76,.09-2.59-1.25-3.9-8.64-4.24-10.87-.57-3.78-1.4-8.2-2.74-8.86-.19-.09-.54-.19-1.19,.18-2.76,1.55-2.76,6.19-2.76,10.67v1.1c0,4.57,0,7.09-2.72,8.21-.42,.17-.89,.14-1.28-.08-1.49-.79-2.64-3.97-3.17-6.45-.38-1.76-1.05-3.01-1.8-3.35-.31-.13-.66-.1-.94,.08-1.26,.73-2.72,2.56-2.8,10.25-.06,6.19-.17,16.89-.3,19.19-.12,4.07-2.41,7.77-6,9.68l-.47-.81Z" style="fill:#593797;"/><g style="opacity:.3;"><path d="M32.47,129.14c3.33-1.73,5.45-5.14,5.54-8.89,.13-2.28,.24-12.98,.3-19.15,.08-8.14,1.71-10.17,3.29-11.08,.55-.34,1.22-.39,1.81-.12,1.07,.45,1.9,1.88,2.36,4,.6,2.8,1.75,5.31,2.67,5.8,.14,.07,.32,.07,.46,0,2.12-.87,2.12-2.89,2.12-7.31v-1.09c-.02-4.77-.04-9.71,3.26-11.53,.61-.42,1.4-.5,2.08-.2,1.42,.7,2.34,3.38,3.28,9.58,.82,5.4,2.31,9.47,3.7,10.14,.27,.14,.6,.12,.85-.05,.57-.37,1.02-.91,1.29-1.54,.39-.86,1-1.6,1.78-2.14,.57-.43,1.31-.57,2-.38,1.93,.62,3.39,3.85,5.09,8,.89,2.19,1.97,3.51,3.21,3.93,.9,.27,1.87,.13,2.66-.38l.48,.84c-1.02,.66-2.29,.83-3.45,.46-1.52-.48-2.8-2.02-3.8-4.48-1.19-2.92-2.83-6.91-4.47-7.41-.42-.12-.88-.02-1.22,.26-.64,.45-1.15,1.07-1.47,1.79-.35,.79-.92,1.46-1.65,1.92-.53,.33-1.2,.36-1.76,.09-2.59-1.25-3.9-8.64-4.24-10.87-.57-3.78-1.4-8.2-2.74-8.86-.19-.09-.54-.19-1.19,.18-2.76,1.55-2.76,6.19-2.76,10.67v1.1c0,4.57,0,7.09-2.72,8.21-.42,.17-.89,.14-1.28-.08-1.49-.79-2.64-3.97-3.17-6.45-.38-1.76-1.05-3.01-1.8-3.35-.31-.13-.66-.1-.94,.08-1.26,.73-2.72,2.56-2.8,10.25-.06,6.19-.17,16.89-.3,19.19-.12,4.07-2.41,7.77-6,9.68l-.47-.81Z"/></g><path d="M80.49,109.85l-47.79,27.59v-17c2.45-2.31,1.02-14.97,5.15-16.81s7.83,9.74,11.23,7.67,2.72-8.15,6.4-10.15,6.48,6.46,14.06,6,10.95-9.45,10.95-11.16v13.86Z" style="fill:#593797; isolation:isolate; opacity:.15;"/><path d="M32.34,120.18c.92-.87,1.26-3.83,1.6-6.69,.52-4.45,1.06-9.05,3.68-10.22,2.46-1.09,4.66,1.75,6.6,4.25,1.69,2.18,3.28,4.23,4.58,3.45,1.52-.91,2.16-2.75,2.85-4.69,.75-2.14,1.57-4.38,3.57-5.47s3.65,.37,5.65,2.06c2.11,1.85,4.74,4.08,8.61,3.85,7.39-.45,10.49-9.25,10.49-10.68h1c-.02,2.17-3.74,11.17-11.4,11.64-4.31,.27-7.06-2.15-9.31-4.09-2-1.73-3.2-2.67-4.54-1.94-1.72,.94-2.42,2.92-3.13,4.94s-1.44,4.11-3.26,5.2c-2.04,1.24-4.03-1.3-5.84-3.68s-3.67-4.79-5.45-4c-2.11,.94-2.64,5.45-3.11,9.45-.39,3.27-.72,6.16-1.9,7.27l-.69-.65Z" style="fill:#593797;"/><path d="M78.67,60.66c-.04,.88-.51,1.68-1.24,2.16-.69,.4-1.25,.08-1.25-.72,.05-.88,.51-1.68,1.25-2.16,.66-.39,1.24-.07,1.24,.72Z" style="fill:#593797;"/><path d="M74.31,61.92l-8.51,4.91c-.53,.34-.87,.9-.92,1.52,0,.55,.41,.76,.92,.47l8.51-4.91c.53-.34,.87-.9,.92-1.53-.01-.55-.42-.76-.92-.46Z" style="fill:#455a64;"/><path d="M78.67,66.64c-.05,.88-.51,1.68-1.24,2.16-.69,.39-1.25,.07-1.25-.72,.05-.88,.51-1.68,1.25-2.16,.66-.4,1.24-.08,1.24,.72Z" style="fill:#593797;"/><path d="M78.67,66.64c-.05,.88-.51,1.68-1.24,2.16-.69,.39-1.25,.07-1.25-.72,.05-.88,.51-1.68,1.25-2.16,.66-.4,1.24-.08,1.24,.72Z" style="isolation:isolate; opacity:.3;"/><path d="M74.31,67.89l-8.51,4.91c-.53,.34-.87,.9-.92,1.52,0,.55,.41,.76,.92,.47l8.51-4.91c.53-.34,.87-.9,.92-1.53-.01-.55-.42-.76-.92-.46Z" style="fill:#455a64;"/></g><g id="o"><polygon points="59.55 128.4 77.41 118.09 77.41 148.12 59.55 158.44 59.55 128.4" style="isolation:isolate; opacity:.15;"/><path d="M60.41,158.42v-29c.02-.31,.19-.6,.45-.77l17-9.8c.25-.14,.45-.03,.45,.26v29.04c-.02,.32-.18,.61-.45,.78l-17,9.79c-.25,.14-.45,.03-.45-.3Z" style="fill:#fff;"/><path d="M62.06,132.95c.05-.3,.24-.55,.5-.7l13.53-7.81c.28-.16,.51-.11,.51,.12-.05,.3-.24,.56-.51,.7l-13.52,7.85c-.28,.12-.48,.07-.51-.16Z" style="fill:#e0e0e0;"/><path d="M62.06,135.09c.05-.3,.24-.55,.5-.7l13.53-7.81c.28-.16,.51-.11,.51,.12-.05,.3-.24,.56-.51,.7l-13.52,7.81c-.28,.16-.48,.11-.51-.12Z" style="fill:#e0e0e0;"/><path d="M62.06,139.54c.05-.3,.23-.56,.5-.71l13.53-7.81c.28-.16,.51-.11,.51,.12-.05,.3-.24,.56-.51,.7l-13.52,7.82c-.28,.16-.48,.1-.51-.12Z" style="fill:#e0e0e0;"/><path d="M62.06,141.67c.05-.3,.24-.55,.5-.7l13.53-7.81c.28-.16,.51-.11,.51,.12-.05,.3-.24,.56-.51,.7l-13.52,7.82c-.28,.16-.48,.1-.51-.13Z" style="fill:#e0e0e0;"/><path d="M62.06,148.26c.05-.3,.24-.55,.5-.7l13.53-7.82c.28-.16,.51-.1,.51,.12-.05,.3-.24,.56-.51,.71l-13.52,7.81c-.28,.16-.48,.11-.51-.12Z" style="fill:#e0e0e0;"/><path d="M62.06,146.12c.05-.3,.24-.55,.5-.7l13.53-7.82c.28-.16,.51-.1,.51,.12-.05,.3-.24,.56-.51,.71l-13.52,7.81c-.28,.16-.48,.11-.51-.12Z" style="fill:#e0e0e0;"/><g id="p"><path d="M70.37,126.46s.01-.05,0-.08c0-.08-.08-.08-.08-.08l-.34-.2-.49-.27-.56-.3c-.06-.03-.16,.18-.11,.18l.55,.34c.17,.11,.34,.2,.48,.28l.34,.2h.17l.04-.07Z" style="fill:#593797;"/><path d="M70.74,126.7c.25-.39,.13-.9-.25-1.15h0c-.15-.06-.33-.03-.46,.06-.41,.26-.66,.71-.69,1.19-.01,.17,.06,.33,.19,.44h0c.45,.24,.88-.01,1.15-.46,.02-.03,.04-.05,.06-.08Z" style="fill:#593797;"/><g style="opacity:.15;"><path d="M70.74,126.7c.25-.39,.13-.9-.25-1.15h0c-.15-.06-.33-.03-.46,.06-.41,.26-.66,.71-.69,1.19-.01,.17,.06,.33,.19,.44h0c.45,.24,.88-.01,1.15-.46,.02-.03,.04-.05,.06-.08Z"/></g><path d="M70.09,127.13h-.09c-.1-.06-.15-.18-.13-.29,.02-.31,.19-.6,.45-.77,.1-.07,.24-.07,.34,0h0c.32,.29,.69,.54,1.08,.74l-.51,.87c-.35-.23-.74-.42-1.14-.55Z" style="fill:#593797;"/><path d="M71.89,127.37s0,.03,0,.05h0c0,.3-.24,.54-.54,.54-.26,0-.48-.19-.53-.44,0-.05,0-.09,0-.14,.02-.38,.22-.73,.54-.94h.09c.06-.01,.13-.01,.19,0,.29,0,.53,.25,.53,.54-.02,.17-.13,.31-.28,.39Z" style="fill:#593797;"/><g style="opacity:.15;"><path d="M71.89,127.37s0,.03,0,.05h0c0,.3-.24,.54-.54,.54-.26,0-.48-.19-.53-.44,0-.05,0-.09,0-.14,.02-.38,.22-.73,.54-.94h.09c.06-.01,.13-.01,.19,0,.29,0,.53,.25,.53,.54-.02,.17-.13,.31-.28,.39Z"/></g><path d="M71.1,127.65c0,.31,.24,.48,.54,.31,.32-.21,.52-.56,.54-.94,0-.31-.24-.49-.54-.31-.32,.21-.52,.56-.54,.94Z" style="fill:#593797;"/></g></g><g id="q"><polygon points="6.95 90.23 24.81 79.92 24.81 109.95 6.95 120.27 6.95 90.23" style="isolation:isolate; opacity:.15;"/><path d="M7.8,120.29v-29c.02-.32,.18-.61,.45-.78l17-9.79c.25-.14,.45-.03,.45,.26v29c-.02,.32-.18,.61-.45,.78l-17,9.79c-.25,.14-.45,.03-.45-.26Z" style="fill:#fff;"/><path d="M9.47,94.81c.05-.3,.24-.55,.5-.7l13.53-7.82c.28-.16,.5-.11,.5,.12-.05,.3-.24,.55-.5,.7l-13.53,7.79c-.28,.21-.5,.11-.5-.09Z" style="fill:#e0e0e0;"/><path d="M9.47,96.92c.05-.3,.24-.55,.5-.7l13.53-7.81c.28-.16,.5-.11,.5,.12-.05,.3-.24,.55-.5,.7l-13.53,7.81c-.28,.16-.5,.07-.5-.12Z" style="fill:#e0e0e0;"/><path d="M9.47,101.36c.05-.3,.24-.55,.5-.7l13.53-7.81c.28-.16,.5-.11,.5,.12-.05,.3-.24,.55-.5,.7l-13.53,7.82c-.28,.16-.5,.1-.5-.13Z" style="fill:#e0e0e0;"/><path d="M9.47,103.5c.05-.3,.24-.55,.5-.7l13.53-7.81c.28-.16,.5-.11,.5,.12-.05,.3-.24,.55-.5,.7l-13.53,7.82c-.28,.16-.5,.1-.5-.13Z" style="fill:#e0e0e0;"/><path d="M9.47,110.09c.05-.3,.24-.55,.5-.7l13.53-7.82c.28-.16,.5-.1,.5,.12-.05,.3-.23,.56-.5,.71l-13.53,7.81c-.28,.16-.5,.1-.5-.12Z" style="fill:#e0e0e0;"/><path d="M9.47,107.99c.05-.3,.24-.55,.5-.7l13.53-7.82c.28-.16,.5-.1,.5,.12-.05,.3-.23,.56-.5,.71l-13.53,7.81c-.28,.12-.5,.07-.5-.12Z" style="fill:#e0e0e0;"/><g id="r"><path d="M17.76,88.29s0-.05,0-.08c0-.08-.08-.08-.08-.08l-.34-.2-.49-.27-.56-.3c-.06-.03-.16,.18-.11,.18l.54,.34,.48,.28,.34,.2h.18l.04-.07Z" style="fill:#593797;"/><path d="M18.15,88.53c.25-.38,.14-.9-.24-1.15h0c-.15-.06-.33-.04-.46,.06-.41,.26-.66,.71-.69,1.19-.02,.17,.06,.34,.19,.44h0s.04,.02,.05,.02c.43,.17,.92-.05,1.09-.48,.02-.03,.04-.05,.06-.08Z" style="fill:#593797;"/><g style="opacity:.15;"><path d="M18.15,88.53c.25-.38,.14-.9-.24-1.15h0c-.15-.06-.33-.04-.46,.06-.41,.26-.66,.71-.69,1.19-.02,.17,.06,.34,.19,.44h0s.04,.02,.05,.02c.43,.17,.92-.05,1.09-.48,.02-.03,.04-.05,.06-.08Z"/></g><path d="M17.49,88.96h-.08c-.1-.06-.15-.18-.13-.29,.02-.31,.18-.6,.44-.77,.1-.08,.24-.08,.34,0h0c.32,.29,.68,.54,1.07,.74l-.51,.87c-.35-.24-.73-.42-1.13-.55Z" style="fill:#593797;"/><path d="M19.28,89.25h0c.03,.29-.19,.55-.48,.58-.29,.03-.55-.19-.58-.48,0-.05,0-.09,0-.14,.02-.38,.22-.73,.54-.94h.08c.06,0,.13,0,.19,0h0c.3,0,.54,.24,.54,.54-.01,.19-.12,.36-.29,.44Z" style="fill:#593797;"/><g style="opacity:.15;"><path d="M19.28,89.25h0c.03,.29-.19,.55-.48,.58-.29,.03-.55-.19-.58-.48,0-.05,0-.09,0-.14,.02-.38,.22-.73,.54-.94h.08c.06,0,.13,0,.19,0h0c.3,0,.54,.24,.54,.54-.01,.19-.12,.36-.29,.44Z"/></g><path d="M18.49,89.48c0,.31,.24,.48,.54,.31,.32-.21,.53-.56,.55-.94,0-.31-.25-.49-.55-.31-.32,.21-.52,.56-.54,.94Z" style="fill:#593797;"/></g></g><g id="s"><polygon points="85.22 75.42 125.2 52.34 125.2 123.65 85.22 146.73 85.22 75.42" style="isolation:isolate; opacity:.15;"/><polygon points="86.39 76.17 126.37 53.09 126.37 90.41 86.39 113.49 86.39 76.17" style="fill:#fafafa;"/><polygon points="87.86 79.21 124.89 57.84 124.89 87.13 87.86 108.5 87.86 79.21" style="fill:#593797;"/><polygon points="87.86 79.21 124.89 57.84 124.89 87.13 87.86 108.5 87.86 79.21" style="fill:#fff; isolation:isolate; opacity:.8;"/><polygon points="124.89 87.13 87.86 108.5 87.86 93.79 124.89 72.42 124.89 87.13" style="fill:#e0e0e0;"/><path d="M87.87,106.56s12.42-6.23,15.36-12c3.78-7.42,11.14-9.68,13.05-12.74s-6.76-.53-6.76-.53l-21.65,12.5v12.77Z" style="fill:#593797;"/><path d="M87.87,106.56s12.42-6.23,15.36-12c3.78-7.42,11.14-9.68,13.05-12.74s-6.76-.53-6.76-.53l-21.65,12.5v12.77Z" style="fill:#fff; isolation:isolate; opacity:.65;"/><path d="M124.89,72.41v-14.57s-2.44,6.58-3.07,6.85-1.73-2.77-4.14-.4-10.78,18.51-10.78,18.51l17.99-10.39Z" style="fill:#593797;"/><path d="M124.89,72.41v-14.57s-2.44,6.58-3.07,6.85-1.73-2.77-4.14-.4-10.78,18.51-10.78,18.51l17.99-10.39Z" style="isolation:isolate; opacity:.3;"/><path d="M116.04,77.56s-4.38-6.1-6.32-5.35-3.91,5.68-4.61,7.75-3.18,4.27-4.9,5.27c-1.09,.69-1.94,1.69-2.45,2.88l18.28-10.55Z" style="fill:#593797;"/><path d="M92.58,85c-1.22,.71-2.22-.25-2.22-2.14s.99-4,2.22-4.71,2.23,.25,2.23,2.14-1.01,4-2.23,4.71Z" style="fill:#fff;"/><g id="t"><polygon points="87.53 148.64 127.64 125.48 127.64 91.07 87.53 114.23 87.53 148.64" style="fill:#fafafa;"/><polygon points="87.53 114.23 87.53 148.64 86.39 147.97 86.39 113.57 87.53 114.23" style="fill:#e0e0e0;"/><polygon points="87.53 114.23 86.39 113.57 126.5 90.41 127.64 91.07 87.53 114.23" style="fill:#593797;"/><g style="opacity:.5;"><polygon points="87.53 114.23 86.39 113.57 126.5 90.41 127.64 91.07 87.53 114.23" style="fill:#fff;"/></g><polygon points="86.39 120.18 87.53 120.85 87.53 114.23 86.39 113.57 86.39 120.18" style="fill:#593797;"/><g style="opacity:.5;"><polygon points="86.39 120.18 87.53 120.85 87.53 114.23 86.39 113.57 86.39 120.18" style="fill:#455a64;"/></g><polygon points="87.53 114.23 127.64 91.07 127.64 97.69 87.53 120.85 87.53 114.23" style="fill:#593797;"/><path d="M90.87,121.98l3-1.74c.34-.19,.62-.05,.62,.31-.03,.41-.26,.79-.62,1l-3,1.74c-.34,.2-.61,.06-.61-.31,.03-.41,.26-.78,.61-1Z" style="fill:#455a64;"/><path d="M95.94,119.06l3-1.74c.33-.19,.61-.05,.61,.31-.04,.41-.26,.78-.61,1l-3,1.73c-.34,.2-.61,.06-.61-.31,.04-.41,.26-.77,.61-.99Z" style="fill:#455a64;"/><path d="M101.01,116.12l3-1.74c.34-.19,.61-.05,.61,.31-.03,.41-.26,.78-.61,1l-3,1.73c-.33,.2-.61,.06-.61-.31,.04-.41,.26-.77,.61-.99Z" style="fill:#455a64;"/><path d="M106.09,113.2l3-1.74c.34-.19,.61-.05,.61,.31-.03,.41-.26,.78-.61,1l-3,1.73c-.34,.2-.62,.06-.62-.31,.04-.41,.27-.77,.62-.99Z" style="fill:#455a64;"/><path d="M111.16,110.27l3-1.73c.33-.2,.61-.06,.61,.3-.04,.41-.26,.78-.61,1l-3,1.73c-.34,.2-.61,.06-.61-.31,.04-.41,.26-.77,.61-.99Z" style="fill:#455a64;"/><path d="M116.23,107.34l3-1.73c.34-.2,.61-.06,.61,.3-.03,.41-.26,.78-.61,1l-3,1.73c-.34,.2-.61,.06-.61-.3,.03-.41,.26-.78,.61-1Z" style="fill:#455a64;"/><path d="M121.3,104.4l3-1.73c.34-.2,.61-.06,.61,.31-.03,.41-.26,.78-.61,1l-3,1.74c-.33,.19-.61,.05-.61-.31,.03-.41,.26-.79,.61-1.01Z" style="fill:#455a64;"/><polygon points="90.52 129.84 94.21 127.66 94.21 124.33 90.52 126.46 90.52 129.84" style="fill:#e0e0e0;"/><polygon points="90.52 134.51 94.21 132.33 94.21 129.01 90.52 131.13 90.52 134.51" style="fill:#e0e0e0;"/><polygon points="90.52 139.18 94.21 137 94.21 133.68 90.52 135.8 90.52 139.18" style="fill:#e0e0e0;"/><polygon points="90.52 143.85 94.21 141.67 94.21 138.35 90.52 140.47 90.52 143.85" style="fill:#e0e0e0;"/><polygon points="95.59 126.91 99.29 124.73 99.29 121.4 95.59 123.53 95.59 126.91" style="fill:#e0e0e0;"/><polygon points="95.59 131.58 99.29 129.4 99.29 126.08 95.59 128.2 95.59 131.58" style="fill:#e0e0e0;"/><polygon points="95.59 136.25 99.29 134.07 99.29 130.74 95.59 132.87 95.59 136.25" style="fill:#e0e0e0;"/><polygon points="95.59 140.92 99.29 138.74 99.29 135.42 95.59 137.54 95.59 140.92" style="fill:#e0e0e0;"/><polygon points="100.67 123.98 104.36 121.8 104.36 118.47 100.67 120.6 100.67 123.98" style="fill:#e0e0e0;"/><polygon points="100.67 128.65 104.36 126.47 104.36 123.14 100.67 125.27 100.67 128.65" style="fill:#e0e0e0;"/><polygon points="100.67 133.32 104.36 131.14 104.36 127.81 100.67 129.94 100.67 133.32" style="fill:#e0e0e0;"/><polygon points="100.67 137.99 104.36 135.81 104.36 132.49 100.67 134.61 100.67 137.99" style="fill:#e0e0e0;"/><polygon points="105.75 121.04 109.44 118.87 109.44 115.54 105.75 117.67 105.75 121.04" style="fill:#e0e0e0;"/><polygon points="105.75 125.71 109.44 123.54 109.44 120.21 105.75 122.34 105.75 125.71" style="fill:#e0e0e0;"/><polygon points="105.75 130.39 109.44 128.21 109.44 124.88 105.75 127.01 105.75 130.39" style="fill:#e0e0e0;"/><polygon points="105.75 135.06 109.44 132.88 109.44 129.55 105.75 131.68 105.75 135.06" style="fill:#e0e0e0;"/><polygon points="110.83 118.11 114.52 115.93 114.52 112.61 110.83 114.73 110.83 118.11" style="fill:#e0e0e0;"/><polygon points="110.83 122.78 114.52 120.61 114.52 117.28 110.83 119.4 110.83 122.78" style="fill:#e0e0e0;"/><polygon points="110.83 127.45 114.52 125.28 114.52 121.95 110.83 124.08 110.83 127.45" style="fill:#e0e0e0;"/><polygon points="110.83 132.12 114.52 129.95 114.52 126.62 110.83 128.75 110.83 132.12" style="fill:#e0e0e0;"/><polygon points="115.9 115.18 119.59 113 119.59 109.68 115.9 111.8 115.9 115.18" style="fill:#e0e0e0;"/><polygon points="115.9 119.85 119.59 117.67 119.59 114.35 115.9 116.47 115.9 119.85" style="fill:#e0e0e0;"/><polygon points="115.9 124.52 119.59 122.35 119.59 119.02 115.9 121.14 115.9 124.52" style="fill:#e0e0e0;"/><polygon points="115.9 129.19 119.59 127.02 119.59 123.69 115.9 125.82 115.9 129.19" style="fill:#e0e0e0;"/><polygon points="120.98 112.25 124.67 110.07 124.67 106.75 120.98 108.87 120.98 112.25" style="fill:#593797;"/><polygon points="120.98 116.92 124.67 114.74 124.67 111.42 120.98 113.54 120.98 116.92" style="fill:#593797;"/><polygon points="120.98 121.59 124.67 119.42 124.67 116.09 120.98 118.21 120.98 121.59" style="fill:#593797;"/><polygon points="120.98 126.26 124.67 124.09 124.67 120.76 120.98 122.88 120.98 126.26" style="fill:#593797;"/><path d="M124.42,105.66l-.29,.94c-.01,.06-.04,.11-.09,.14l-.64,.5c-.07,.08-.15,.32-.07,.32l.46,.34s.02,.09,0,.13l-.11,.91c-.02,.15,.09,.19,.18,.07l.58-.73s.06-.07,.11-.07l.58,.07c.09,0,.18-.15,.18-.28l-.11-.79c-.02-.06-.02-.11,0-.17l.47-.87c.07-.14,.03-.24-.07-.24l-.64,.24h0s-.07,.03-.1,0l-.29-.61c-.04-.1-.17-.02-.15,.1Z" style="fill:#f28f8f;"/><path d="M107.23,130.31c-2.01,.67-2.92-1.36-2.3-3,.33-.88,.84-1.68,1.48-2.36,.58-.62,1.24-1.45,2.17-1.3,.2,.03,.09,.29-.06,.29-1.83,.31-5.19,5.76-2.09,6,1.42-.04,2.67-.95,3.14-2.29,.28-.73,.57-1.73,0-2.4s-1.56-.17-2.09,.33c-.11,.11-.36,.04-.22-.11,.47-.56,1.17-1.22,2-.92,.63,.25,1.03,.88,1,1.56,.02,1.91-1.21,3.62-3.03,4.2Z" style="fill:#f28f8f;"/><path d="M105.01,124.93c0,.11-.09,.2-.22,.2-.32-.11-.66-.16-1-.17-.28,.03-.55,.05-.83,.06v-.12c.33-.32,.8-.43,1.24-.31-.61-.31-1.27-.48-1.95-.5-.47-.03-.93,0-1.39,.1-.12,.05-.26,.08-.39,.07-.05,0-.09-.12,0-.12,.84-.34,1.77-.43,2.66-.24,.46,.06,.9,.21,1.3,.43-.02-.04-.05-.08-.08-.11-.13-.23-.42-.5-.46-.63s.14-.21,.21-.13c.21,.2,.4,.42,.56,.65,.18,.24,.3,.52,.35,.82Z" style="fill:#f28f8f;"/></g><g id="u"><path d="M107.29,67.52v-.08c0-.08-.08-.08-.08-.08l-.35-.19-.48-.28-.56-.3c-.11-.03-.17,.19-.11,.19l.54,.33,.48,.29,.34,.2h.17l.05-.08Z" style="fill:#455a64;"/><path d="M107.64,67.78c.25-.39,.14-.91-.25-1.16h0c-.15-.06-.33-.03-.46,.06-.4,.27-.65,.71-.68,1.19-.02,.17,.06,.34,.19,.44h0s.04,.02,.07,.03c.43,.16,.92-.05,1.08-.49,.02-.02,.03-.04,.05-.07Z" style="fill:#37474f;"/><path d="M106.96,68.2s-.05,.01-.08,0h0c-.1-.06-.15-.18-.13-.29,.02-.31,.18-.6,.44-.77,.1-.08,.24-.08,.34,0h0c.32,.3,.68,.54,1.07,.74l-.51,.87c-.35-.23-.73-.42-1.13-.55Z" style="fill:#455a64;"/><path d="M108.79,68.44v.06h0c.02,.29-.19,.55-.48,.57-.29,.02-.55-.19-.58-.49,0-.05,0-.09,0-.14,.02-.38,.23-.73,.55-.94h.08c.06,0,.13,0,.19,0h0c.3,0,.54,.24,.54,.54-.03,.17-.14,.32-.3,.39Z" style="fill:#37474f;"/><path d="M108.01,68.72c0,.31,.24,.48,.54,.31,.32-.21,.53-.56,.55-.94,0-.31-.25-.49-.55-.31-.32,.21-.52,.56-.54,.94Z" style="fill:#455a64;"/></g></g><g id="v"><path d="M134.02,5.26h0c.41-.32,.62-.82,.57-1.33-.08-1.48-.86-2.84-2.1-3.65-.45-.33-1.04-.37-1.53-.12h0L.58,75.42l3,5.17L134.02,5.26Z" style="fill:#455a64;"/><path d="M2.1,80.43c-1.24-.81-2.02-2.17-2.1-3.65,0-1.34,.94-1.89,2.1-1.22,1.24,.81,2.03,2.17,2.11,3.65,0,1.35-.94,1.9-2.11,1.22Z" style="fill:#37474f;"/></g><g id="w"><polygon points="88.34 28.26 106.2 17.94 106.2 47.98 88.34 58.29 88.34 28.26" style="isolation:isolate; opacity:.15;"/><path d="M89.19,58.32V29.32c.02-.32,.18-.61,.45-.78l17-9.8c.06-.05,.14-.07,.21-.06,.15,.02,.26,.16,.24,.32v29c-.02,.32-.18,.61-.45,.78l-17,9.8c-.25,.14-.45,.02-.45-.26Z" style="fill:#fff;"/><path d="M90.85,32.82c.05-.3,.24-.56,.51-.71l13.53-7.82c.28-.16,.5-.11,.5,.12-.05,.3-.24,.55-.5,.7l-13.53,7.82c-.27,.18-.51,.1-.51-.11Z" style="fill:#e0e0e0;"/><path d="M90.85,34.95c.05-.3,.24-.56,.51-.71l13.53-7.81c.28-.16,.5-.11,.5,.12-.05,.3-.24,.55-.5,.7l-13.53,7.86c-.27,.12-.51,.06-.51-.16Z" style="fill:#e0e0e0;"/><path d="M90.85,39.39c.05-.3,.24-.56,.51-.7l13.53-7.82c.28-.16,.5-.1,.5,.13-.05,.3-.24,.55-.5,.7l-13.53,7.81c-.27,.16-.51,.11-.51-.12Z" style="fill:#e0e0e0;"/><path d="M90.85,41.53c.05-.3,.24-.56,.51-.7l13.53-7.82c.28-.16,.5-.1,.5,.12-.05,.3-.23,.56-.5,.71l-13.53,7.81c-.27,.16-.51,.11-.51-.12Z" style="fill:#e0e0e0;"/><path d="M90.85,48.11c.05-.3,.24-.56,.51-.7l13.53-7.81c.28-.16,.5-.11,.5,.12-.05,.3-.24,.55-.5,.7l-13.53,7.81c-.27,.16-.51,.11-.51-.12Z" style="fill:#e0e0e0;"/><path d="M90.85,45.97c.05-.3,.24-.56,.51-.7l13.53-7.81c.28-.16,.5-.11,.5,.12-.05,.3-.24,.55-.5,.7l-13.53,7.83c-.27,.14-.51,.09-.51-.14Z" style="fill:#e0e0e0;"/><g id="x"><path d="M99.13,26.31c0-.07,0,.02,0-.07,0-.09-.08-.09-.08-.09l-.34-.19-.49-.27-.56-.31c-.11-.03-.29,.07-.11,.19s.37,.23,.54,.33l.48,.29,.34,.2h.18l.04-.08Z" style="fill:#593797;"/><path d="M99.51,26.56c.25-.39,.14-.91-.25-1.16h0c-.15-.05-.32-.03-.46,.06-.4,.27-.65,.71-.68,1.19-.02,.17,.05,.34,.19,.44h0c.46,.25,.89,0,1.15-.46,.02-.02,.03-.04,.05-.07Z" style="fill:#593797;"/><g style="opacity:.15;"><path d="M99.51,26.56c.25-.39,.14-.91-.25-1.16h0c-.15-.05-.32-.03-.46,.06-.4,.27-.65,.71-.68,1.19-.02,.17,.05,.34,.19,.44h0c.46,.25,.89,0,1.15-.46,.02-.02,.03-.04,.05-.07Z"/></g><path d="M98.88,26.99h-.08c-.09-.07-.14-.18-.13-.29,.02-.31,.18-.6,.44-.78,.1-.07,.24-.07,.34,0h0c.32,.3,.68,.55,1.07,.75l-.51,.86c-.35-.23-.73-.41-1.13-.54Z" style="fill:#593797;"/><path d="M100.66,27.24v.05h0c.02,.29-.19,.55-.48,.57-.29,.02-.55-.19-.58-.49,0-.05,0-.09,0-.14,.03-.38,.23-.73,.55-.94h.08c.06,0,.13,0,.19,0,.29,0,.53,.24,.54,.53-.03,.18-.14,.33-.3,.41Z" style="fill:#593797;"/><g style="opacity:.15;"><path d="M100.66,27.24v.05h0c.02,.29-.19,.55-.48,.57-.29,.02-.55-.19-.58-.49,0-.05,0-.09,0-.14,.03-.38,.23-.73,.55-.94h.08c.06,0,.13,0,.19,0,.29,0,.53,.24,.54,.53-.03,.18-.14,.33-.3,.41Z"/></g><path d="M99.88,27.5c0,.31,.24,.49,.54,.31,.32-.21,.53-.56,.55-.94,0-.31-.25-.48-.55-.31-.32,.21-.52,.56-.54,.94Z" style="fill:#593797;"/></g><polygon points="91.31 23.74 92.78 22.89 92.78 28.47 91.31 29.32 91.31 23.74" style="fill:#593797;"/></g><g id="y"><polygon points="108.96 16.35 126.82 6.03 126.82 36.07 108.96 46.38 108.96 16.35" style="isolation:isolate; opacity:.15;"/><path d="M109.81,46.42V17.42c.02-.32,.18-.61,.45-.78l17-9.79c.24-.15,.45-.03,.45,.26v28.98c-.02,.32-.18,.61-.45,.78l-17,9.8c-.25,.14-.45,.02-.45-.25Z" style="fill:#fff;"/><path d="M111.47,20.9c.05-.3,.24-.56,.51-.7l13.53-7.82c.28-.16,.5-.1,.5,.12-.05,.3-.23,.56-.5,.71l-13.53,7.81c-.28,.16-.51,.09-.51-.12Z" style="fill:#e0e0e0;"/><path d="M111.47,23.04c.05-.3,.24-.56,.51-.7l13.53-7.82c.28-.16,.5-.1,.5,.12-.05,.3-.23,.56-.5,.71l-13.53,7.81c-.28,.16-.51,.1-.51-.12Z" style="fill:#e0e0e0;"/><path d="M111.47,27.48c.05-.3,.24-.56,.51-.7l13.53-7.81c.28-.16,.5-.11,.5,.12-.05,.3-.24,.55-.5,.7l-13.53,7.81c-.28,.16-.51,.11-.51-.12Z" style="fill:#e0e0e0;"/><path d="M111.47,29.62c.05-.3,.24-.56,.51-.7l13.53-7.81c.28-.16,.5-.11,.5,.12-.05,.3-.24,.55-.5,.7l-13.53,7.81c-.28,.16-.51,.11-.51-.12Z" style="fill:#e0e0e0;"/><path d="M111.47,36.2c.05-.3,.24-.56,.51-.7l13.53-7.81c.28-.16,.5-.11,.5,.12-.05,.3-.24,.55-.5,.7l-13.53,7.81c-.28,.17-.51,.11-.51-.12Z" style="fill:#e0e0e0;"/><path d="M111.47,34.06c.05-.3,.24-.56,.51-.7l13.53-7.81c.28-.16,.5-.11,.5,.12-.05,.3-.24,.55-.5,.7l-13.53,7.81c-.28,.17-.51,.11-.51-.12Z" style="fill:#e0e0e0;"/><g id="a`"><path d="M119.77,14.4c0-.07,0,.01,0-.07s-.08-.08-.08-.08l-.34-.2-.49-.27-.56-.31c-.11-.03-.17,.19-.11,.19l.54,.34,.48,.28,.34,.2h.18l.04-.08Z" style="fill:#593797;"/><path d="M120.14,14.65c.25-.39,.14-.91-.25-1.16h0c-.15-.05-.32-.03-.46,.06-.4,.27-.65,.71-.68,1.19-.02,.17,.05,.34,.19,.44h0c.46,.25,.89,0,1.15-.46,.02-.02,.03-.04,.05-.07Z" style="fill:#593797;"/><g style="opacity:.15;"><path d="M120.14,14.65c.25-.39,.14-.91-.25-1.16h0c-.15-.05-.32-.03-.46,.06-.4,.27-.65,.71-.68,1.19-.02,.17,.05,.34,.19,.44h0c.46,.25,.89,0,1.15-.46,.02-.02,.03-.04,.05-.07Z"/></g><path d="M119.5,15.08h-.08c-.09-.07-.14-.18-.13-.29,.02-.31,.18-.6,.44-.77,.1-.07,.24-.07,.34,0h0c.32,.29,.68,.54,1.07,.74l-.51,.87c-.35-.24-.73-.42-1.13-.55Z" style="fill:#593797;"/><path d="M121.28,15.37h0c.02,.29-.19,.55-.48,.57-.29,.02-.55-.19-.58-.49,0-.04,0-.09,0-.13,.02-.38,.23-.73,.55-.94h.08c.06,0,.13,0,.19,0,.29,0,.53,.24,.54,.53-.01,.19-.13,.36-.3,.45Z" style="fill:#593797;"/><g style="opacity:.15;"><path d="M121.28,15.37h0c.02,.29-.19,.55-.48,.57-.29,.02-.55-.19-.58-.49,0-.04,0-.09,0-.13,.02-.38,.23-.73,.55-.94h.08c.06,0,.13,0,.19,0,.29,0,.53,.24,.54,.53-.01,.19-.13,.36-.3,.45Z"/></g><path d="M120.5,15.59c0,.32,.24,.49,.54,.32,.32-.21,.52-.56,.55-.94,0-.32-.25-.49-.55-.32-.32,.21-.52,.56-.54,.94Z" style="fill:#593797;"/></g><polygon points="111.93 11.83 113.4 10.99 113.4 16.56 111.93 17.41 111.93 11.83" style="fill:#593797;"/></g><g id="aa"><polygon points="87.32 56.2 96.03 51.17 96.03 64.58 87.32 69.61 87.32 56.2" style="isolation:isolate; opacity:.15;"/><g id="ab"><path d="M96.75,53.18l-9.05,5.23,.56,7.6c.12,.85,1.45,.59,2.12,.16,0,.65,.44,1.73,1.11,1.36l6-3.37-.74-10.98Z" style="fill:#455a64;"/><polygon points="96.73 51.5 87.68 56.73 87.68 58.41 96.73 53.18 96.73 51.5" style="fill:#37474f;"/><polygon points="90.23 65.54 91 67.56 88.52 66.47 90.23 65.54" style="fill:#37474f;"/></g></g></g></g><text transform="translate(158.73 44.62)" style="fill:#fff; font-family:TimesNewRomanPS-BoldMT, Nokio Regular; font-size:48px;"><tspan x="0" y="0">The</tspan><tspan x="0" y="57.6">Visualization</tspan><tspan x="0" y="115.2">Project</tspan></text></svg>